<?xml version="1.0" encoding="utf-8"?>
<!-- Generator: Adobe Illustrator 19.0.0, SVG Export Plug-In . SVG Version: 6.00 Build 0)  -->
<svg version="1.1" id="Layer_1" xmlns="http://www.w3.org/2000/svg" xmlns:xlink="http://www.w3.org/1999/xlink" x="0px" y="0px"
	 viewBox="-608 306 27 34" style="enable-background:new -608 306 27 34;" xml:space="preserve">
<style type="text/css">
	.st0{fill:#E1E1DF;}
	.st1{fill:none;}
</style>
<g id="_x32_">
	<path class="st0" d="M-582,339h-25v-5.2c1.9-1.3,4.1-2.8,6.1-4.3c1.9-1.5,3.6-2.9,4.7-3.9c1.7-1.6,3-3.1,3.8-4.3s1.2-2.4,1.2-3.6
		c0-1.4-0.5-2.5-1.3-3.4c-1-0.8-2.2-1.1-3.9-1.1c-1.3,0-2.7,0.3-4.1,0.8c-1.4,0.6-2.8,1.1-4,2.1h-1.2v-7c1-0.5,2.8-0.9,4.7-1.3
		c1.9-0.5,4-0.7,6.1-0.7c3.9,0,7,0.9,9.1,2.5c2.1,1.6,3.2,4,3.2,7c0,2-0.5,3.8-1.4,5.7c-1,1.8-2.5,3.6-4.5,5.6
		c-1.2,1.1-2.6,1.9-3.8,2.9c-1.2,1-2.2,1.7-2.8,1.7h13.6V339z"/>
</g>
<rect id="_x3C_Sector_x3E__86_" x="-608" y="306" class="st1" width="28" height="35"/>
</svg>
