<?xml version="1.0" encoding="utf-8"?>
<!-- Generator: Adobe Illustrator 19.0.0, SVG Export Plug-In . SVG Version: 6.00 Build 0)  -->
<svg version="1.1" id="Layer_1" xmlns="http://www.w3.org/2000/svg" xmlns:xlink="http://www.w3.org/1999/xlink" x="0px" y="0px"
	 viewBox="-608 306 27 34" style="enable-background:new -608 306 27 34;" xml:space="preserve">
<style type="text/css">
	.st0{fill:#E1E1DF;}
	.st1{fill:none;}
</style>
<g id="_x33_">
	<path class="st0" d="M-584.2,324c0.7,0.6,1.2,1.2,1.6,2.1c0.4,0.8,0.6,1.8,0.6,3.1c0,1.4-0.3,2.8-0.8,4s-1.4,2.3-2.6,3.2
		c-1.1,0.8-2.5,1.5-4.1,2c-1.6,0.5-3.5,0.7-5.8,0.7c-2.5,0-5.1-0.2-6.9-0.6c-1.8-0.4-2.9-0.8-4.8-1.3V331h1.5c1.2,0,2.6,1,4.2,1.5
		c1.7,0.6,3.2,0.7,4.5,0.7c0.8,0,1.7-0.2,2.6-0.3c0.9-0.1,1.7-0.5,2.4-0.9c0.5-0.4,0.9-0.8,1.2-1.3c0.3-0.5,0.5-1.2,0.5-2.2
		s-0.2-1.6-0.7-2.1c-0.4-0.5-0.9-0.8-1.6-1s-1.5-0.2-2.5-0.2c-0.9,0-1.8,0.1-2.6,0.1h-2.1v-5.6h2.2c1,0,2.1-0.1,2.8-0.2
		c0.8-0.1,1.5-0.3,2.1-0.6s1-0.7,1.4-1c0.3-0.5,0.5-1,0.5-1.9c0-0.7-0.2-1.1-0.5-1.5s-0.8-0.7-1.2-0.9c-0.6-0.3-1.1-0.4-1.9-0.5
		c-0.8-0.1-1.3-0.1-1.9-0.1c-1.3,0-2.7,0.4-4.2,0.8c-1.5,0.5-3,1.2-4.4,2.2h-1.4v-7c1.9-0.5,3-0.8,4.9-1.3s4.1-0.7,6.1-0.7
		c2,0,3.8,0.2,5.2,0.5c1.5,0.4,2.7,0.8,3.7,1.3c1.1,0.7,2,1.5,2.5,2.4s0.8,2.1,0.8,3.4c0,1.7-0.8,3.2-1.9,4.6
		c-1,1.5-2.5,2.3-4.4,2.7v0.3c0.9,0.1,1.7,0.3,2.5,0.6C-585.7,323-584.8,323.4-584.2,324z"/>
</g>
<rect id="_x3C_Sector_x3E__85_" x="-608" y="306" class="st1" width="27" height="34"/>
</svg>
