<?xml version="1.0" encoding="utf-8"?>
<!-- Generator: Adobe Illustrator 19.0.0, SVG Export Plug-In . SVG Version: 6.00 Build 0)  -->
<svg version="1.1" id="Layer_1" xmlns="http://www.w3.org/2000/svg" xmlns:xlink="http://www.w3.org/1999/xlink" x="0px" y="0px"
	 viewBox="-613 315 22 22" style="enable-background:new -613 315 22 22;" xml:space="preserve">
<style type="text/css">
	.st0{fill:none;}
	.st1{fill:#464646;}
</style>
<rect id="_x3C_Sector_x3E__131_" x="-613" y="315" class="st0" width="22" height="22"/>
<rect id="header-admin_1_" x="-613" y="315" class="st0" width="22" height="22"/>
<path class="st1" d="M-592,320.8c0-0.2-0.1-0.3-0.3-0.4c-0.2-0.1-0.4,0-0.5,0.1l-2.6,2.6l-2.9-0.9l-0.9-2.8l2.6-2.6
	c0.1-0.1,0.2-0.3,0.1-0.5c-0.1-0.2-0.2-0.3-0.4-0.3c-1.6-0.1-3.1,0.4-4.3,1.5c-1.5,1.5-1.9,3.7-1.2,5.6l-8.9,8.4c-1,1-1,2.6,0,3.7
	c1,1,2.7,1,3.7,0l8.3-8.9c1.9,0.7,4.2,0.3,5.7-1.2C-592.4,324-591.8,322.5-592,320.8z M-609.6,334.5c-0.5,0-1-0.4-1-1
	c0-0.6,0.4-1,1-1s1,0.4,1,1C-608.6,334.1-609,334.5-609.6,334.5z"/>
</svg>
