<?xml version="1.0" encoding="utf-8"?>
<!-- Generator: Adobe Illustrator 19.1.0, SVG Export Plug-In . SVG Version: 6.00 Build 0)  -->
<svg version="1.1" id="Capa_1" xmlns="http://www.w3.org/2000/svg" xmlns:xlink="http://www.w3.org/1999/xlink" x="0px" y="0px"
	 viewBox="0 0 49 49" style="enable-background:new 0 0 49 49;" xml:space="preserve">
<style type="text/css">
	.st0{fill-rule:evenodd;clip-rule:evenodd;fill:#FF0000;}
</style>
<path class="st0" d="M40.7,1.4H8.3c-3.8,0-6.9,3.1-6.9,6.9v32.3c0,3.8,3.1,6.9,6.9,6.9h32.3c3.8,0,6.9-3.1,6.9-6.9V8.3
	C47.6,4.5,44.5,1.4,40.7,1.4z M43,37.4c0,3.1-2.5,5.5-5.5,5.5H11.6C8.5,43,6,40.5,6,37.4V11.6C6,8.5,8.5,6,11.6,6h25.9
	c3.1,0,5.5,2.5,5.5,5.5V37.4z M13.4,24.5l6.4,7.9h3.6l12.1-15.7l-6.3,0l-7.7,10.8l-2.2-2.9H13.4z"/>
</svg>
