<?xml version="1.0" encoding="utf-8"?>
<!-- Generator: Adobe Illustrator 19.0.0, SVG Export Plug-In . SVG Version: 6.00 Build 0)  -->
<svg version="1.1" id="Layer_1" xmlns="http://www.w3.org/2000/svg" xmlns:xlink="http://www.w3.org/1999/xlink" x="0px" y="0px"
	 viewBox="-619 315 9 23" style="enable-background:new -619 315 9 23;" xml:space="preserve">
<style type="text/css">
	.st0{fill:#ED2224;}
	.st1{fill:none;}
</style>
<symbol  id="i" viewBox="0 -21 7 21">
	<g>
		<g>
			<path class="st0" d="M7-2c0,1.1-0.9,2-2,2H2C0.9,0,0-0.9,0-2v-11c0-1.1,0.9-2,2-2h3c1.1,0,2,0.9,2,2V-2z M5-17H2
				c-0.8,0-1.9-0.2-2-1v-2c0-0.8,1.2-1,2-1h3c0.8,0,2,0.2,2,1v2C7-17.2,5.8-17,5-17z"/>
		</g>
	</g>
</symbol>
<use xlink:href="#i"  width="7" height="21" id="XMLID_262_" y="-21" transform="matrix(1 0 0 -1 -618 316)" style="overflow:visible;"/>
<rect id="_x3C_Sector_x3E__124_" x="-619" y="315" class="st1" width="9" height="23"/>
</svg>
