<?xml version="1.0" encoding="utf-8"?>
<!-- Generator: Adobe Illustrator 19.0.0, SVG Export Plug-In . SVG Version: 6.00 Build 0)  -->
<svg version="1.1" id="Layer_1" xmlns="http://www.w3.org/2000/svg" xmlns:xlink="http://www.w3.org/1999/xlink" x="0px" y="0px"
	 viewBox="-599 300 53 53" style="enable-background:new -599 300 53 53;" xml:space="preserve">
<style type="text/css">
	.st0{fill:#FF0000;}
</style>
<symbol  id="ayuda-modal_2" viewBox="0 -51.6 51.6 51.6">
	<g id="i-menu_2_">
		<g>
			<g>
				<path class="st0" d="M25.8-19.3c2.1,0,3.9,1.7,3.9,3.9s-1.7,3.9-3.9,3.9s-3.9-1.7-3.9-3.9S23.6-19.3,25.8-19.3z M26-21.9
					c-2.1,0-4-1.7-4-3.9v-10.4c0-2.1,1.9-3.9,4-3.9s4,1.7,4,3.9v10.4C30-23.6,28.1-21.9,26-21.9z"/>
			</g>
		</g>
		<path class="st0" d="M25.8,0C11.5,0,0-11.5,0-25.8s11.5-25.8,25.8-25.8S51.6-40,51.6-25.8S40,0,25.8,0z M25.8-46.5
			C14.3-46.5,5-37.2,5-25.7S14.3-4.9,25.8-4.9s20.8-9.3,20.8-20.8S37.2-46.5,25.8-46.5z"/>
	</g>
</symbol>
<use xlink:href="#ayuda-modal_2"  width="51.6" height="51.6" id="XMLID_789_" y="-51.6" transform="matrix(0.9884 0 0 -0.9884 -598 301)" style="overflow:visible;"/>
</svg>
