<?xml version="1.0" encoding="utf-8"?>
<!-- Generator: Adobe Illustrator 19.0.0, SVG Export Plug-In . SVG Version: 6.00 Build 0)  -->
<svg version="1.1" id="Layer_1" xmlns="http://www.w3.org/2000/svg" xmlns:xlink="http://www.w3.org/1999/xlink" x="0px" y="0px"
	 viewBox="-618 315 10 22" style="enable-background:new -618 315 10 22;" xml:space="preserve">
<style type="text/css">
	.st0{fill:#454545;}
</style>
<path class="st0" d="M-609,332v-6.4v-0.1V319c0-1.7-1.3-3-3-3h-0.2c-1.7,0-3,1.4-3,3v4.9v1.6v3.3c0,1.2,1,2.2,2.2,2.2
	c1.2,0,2.2-1,2.2-2.2v-7.3h0c0,0,0,0,0,0c0-0.3-0.2-0.5-0.5-0.5c-0.3,0-0.5,0.2-0.5,0.5c0,0,0,0,0,0h0v7.3h0c0,0.7-0.6,1.2-1.2,1.2
	c-0.7,0-1.2-0.6-1.2-1.2h0v-3.3v-1.6v-4.8c0-1.2,1-2.1,2.1-2.1s2.1,1,2.1,2.1v6.3v0.1v6.4h0c0,1.7-1.3,3-3,3c-1.7,0-3-1.3-3-3h0
	v-10.4h0c0,0,0,0,0,0c0-0.3-0.2-0.5-0.5-0.5c-0.3,0-0.5,0.2-0.5,0.5c0,0,0,0,0,0h0V332c0,2.2,1.8,4,4,4S-609,334.2-609,332L-609,332
	z"/>
</svg>
