<?xml version="1.0" encoding="utf-8"?>
<!-- Generator: Adobe Illustrator 19.0.0, SVG Export Plug-In . SVG Version: 6.00 Build 0)  -->
<svg version="1.1" id="Layer_1" xmlns="http://www.w3.org/2000/svg" xmlns:xlink="http://www.w3.org/1999/xlink" x="0px" y="0px"
	 viewBox="-612 315 22 22" style="enable-background:new -612 315 22 22;" xml:space="preserve">
<style type="text/css">
	.st0{fill:#424242;}
	.st1{fill:#FFFFFF;}
	.st2{fill:none;}
</style>
<g id="descargar-adjunto_6_">
	<path id="XMLID_159_" class="st0" d="M-591,333c0,1.7-1.3,3-3,3h-14c-1.7,0-3-1.3-3-3v-14c0-1.7,1.3-3,3-3h14c1.7,0,3,1.3,3,3V333z
		"/>
	<path class="st1" d="M-597,327.2h-1.5v-8c0-0.6-0.4-1-1-1h-3c-0.6,0-1,0.4-1,1v8h-1.5c-0.6,0-0.2,0.7-0.2,0.8l3.8,5.7
		c0.4,0.2,0.7-0.1,0.7-0.1l3.9-5.7C-596.6,327.4-597,327.2-597,327.2z"/>
</g>
<rect id="ayuda_1_" x="-612" y="315" class="st2" width="22" height="22"/>
</svg>
