<?xml version="1.0" encoding="utf-8"?>
<!-- Generator: Adobe Illustrator 19.0.0, SVG Export Plug-In . SVG Version: 6.00 Build 0)  -->
<svg version="1.1" id="Layer_1" xmlns="http://www.w3.org/2000/svg" xmlns:xlink="http://www.w3.org/1999/xlink" x="0px" y="0px"
	 viewBox="-604 310 42 34" style="enable-background:new -604 310 42 34;" xml:space="preserve">
<style type="text/css">
	.st0{fill:#D7D8D8;}
	.st1{fill:#918F8A;}
	.st2{fill:#FFFFFF;}
	.st3{fill:#787872;}
</style>
<g id="close-menu">
	<g>
		<path class="st0" d="M-566,343h-34c-1.7,0-3-1.3-3-3v-24c0-1.7,1.3-3,3-3h34c1.7,0,3,1.3,3,3v24C-563,341.7-564.3,343-566,343z"/>
	</g>
	<path class="st1" d="M-566,312c1.1,0,2,0.9,2,2v24c0,1.1-0.9,2-2,2h-34c-1.1,0-2-0.9-2-2v-24c0-1.1,0.9-2,2-2H-566 M-566,311h-34
		c-1.7,0-3,1.3-3,3v24c0,1.7,1.3,3,3,3h34c1.7,0,3-1.3,3-3v-24C-563,312.3-564.3,311-566,311L-566,311z"/>
	<path class="st2" d="M-566,312c1.1,0,2,0.9,2,2v24c0,1.1-0.9,2-2,2h-34c-1.1,0-2-0.9-2-2v-24c0-1.1,0.9-2,2-2H-566"/>
</g>
<g id="btn-imprimir-up">
	<path id="imprimir-comprobante_2_" class="st3" d="M-574.2,320h-2.8v-4h-12v4h-3.2c-0.7,0-0.8,0.3-0.8,1v11c0,0.7,0.1,1,0.8,1h3.2
		v3h12v-3h2.8c0.7,0,1.2-0.3,1.2-1v-11C-573,320.3-573.6,320-574.2,320z M-587,318h8v2h-8V318z M-579,334h-8v-4h8V334z M-575,331h-2
		v-3h-12v3h-2v-9h16V331z M-577.2,323h-2v2h2V323z"/>
</g>
</svg>
