<?xml version="1.0" encoding="utf-8"?>
<!-- Generator: Adobe Illustrator 19.0.0, SVG Export Plug-In . SVG Version: 6.00 Build 0)  -->
<svg version="1.1" id="Layer_1" xmlns="http://www.w3.org/2000/svg" xmlns:xlink="http://www.w3.org/1999/xlink" x="0px" y="0px"
	 viewBox="-604 310 42 34" style="enable-background:new -604 310 42 34;" xml:space="preserve">
<style type="text/css">
	.st0{fill:#D7D8D8;}
	.st1{fill:#918F8A;}
	.st2{fill:#FFFFFF;}
	.st3{fill:#7E7E79;}
</style>
<symbol  id="close-menu_1_" viewBox="0 -32 40 32">
	<g>
		<path class="st0" d="M37-32H3c-1.7,0-3,1.3-3,3v24c0,1.7,1.3,3,3,3h34c1.7,0,3-1.3,3-3v-24C40-30.7,38.7-32,37-32z"/>
	</g>
	<path class="st1" d="M37-1c1.1,0,2-0.9,2-2v-24c0-1.1-0.9-2-2-2H3c-1.1,0-2,0.9-2,2v24c0,1.1,0.9,2,2,2H37 M37,0H3C1.3,0,0-1.3,0-3
		v-24c0-1.7,1.3-3,3-3h34c1.7,0,3,1.3,3,3v24C40-1.3,38.7,0,37,0L37,0z"/>
	<path class="st2" d="M37-1c1.1,0,2-0.9,2-2v-24c0-1.1-0.9-2-2-2H3c-1.1,0-2,0.9-2,2v24c0,1.1,0.9,2,2,2H37"/>
	<path id="XMLID_4_" class="st3" d="M29-22l-2-2l-7,7l-7-7l-2,2l7,7l-7,7l2,2l7-7l6,7l2-2l-6-7L29-22z"/>
</symbol>
<g id="close-menu">
</g>
<use xlink:href="#close-menu_1_"  width="40" height="32" id="XMLID_2_" x="0" y="-32" transform="matrix(1 0 0 -1 -603 311)" style="overflow:visible;"/>
</svg>
