<?xml version="1.0" encoding="utf-8"?>
<!-- Generator: Adobe Illustrator 19.0.0, SVG Export Plug-In . SVG Version: 6.00 Build 0)  -->
<svg version="1.1" id="Layer_1" xmlns="http://www.w3.org/2000/svg" xmlns:xlink="http://www.w3.org/1999/xlink" x="0px" y="0px"
	 viewBox="-604 310 42 34" style="enable-background:new -604 310 42 34;" xml:space="preserve">
<style type="text/css">
	.st0{fill:#D7D8D8;}
	.st1{fill:#918F8A;}
	.st2{fill:#FFFFFF;}
	.st3{fill:#7E7E79;}
</style>
<g>
	<path class="st0" d="M-566,343h-34c-1.7,0-3-1.3-3-3v-24c0-1.7,1.3-3,3-3h34c1.7,0,3,1.3,3,3v24C-563,341.7-564.3,343-566,343z"/>
</g>
<path class="st1" d="M-566,312c1.1,0,2,0.9,2,2v24c0,1.1-0.9,2-2,2h-34c-1.1,0-2-0.9-2-2v-24c0-1.1,0.9-2,2-2H-566 M-566,311h-34
	c-1.7,0-3,1.3-3,3v24c0,1.7,1.3,3,3,3h34c1.7,0,3-1.3,3-3v-24C-563,312.3-564.3,311-566,311L-566,311z"/>
<path class="st2" d="M-566,312c1.1,0,2,0.9,2,2v24c0,1.1-0.9,2-2,2h-34c-1.1,0-2-0.9-2-2v-24c0-1.1,0.9-2,2-2H-566"/>
<g id="i-menu">
	<g>
		<g id="XMLID_12_">
			<g id="XMLID_13_">
				<path id="XMLID_14_" class="st3" d="M-583,320.5c-0.8,0-1.5,0.7-1.5,1.5s0.7,1.5,1.5,1.5s1.5-0.7,1.5-1.5
					S-582.2,320.5-583,320.5z M-583,324.5c-0.8,0-1.5,0.7-1.5,1.5v4c0,0.8,0.7,1.5,1.5,1.5s1.5-0.7,1.5-1.5v-4
					C-581.5,325.2-582.2,324.5-583,324.5z"/>
			</g>
		</g>
		<path class="st3" d="M-583,316c-5.5,0-10,4.5-10,10c0,5.5,4.5,10,10,10c5.5,0,10-4.5,10-10C-573,320.5-577.5,316-583,316z
			 M-583,334c-4.4,0-8-3.6-8-8s3.6-8,8-8s8,3.6,8,8S-578.6,334-583,334z"/>
	</g>
</g>
</svg>
