<?xml version="1.0" encoding="utf-8"?>
<!-- Generator: Adobe Illustrator 19.0.0, SVG Export Plug-In . SVG Version: 6.00 Build 0)  -->
<svg version="1.1" id="Layer_1" xmlns="http://www.w3.org/2000/svg" xmlns:xlink="http://www.w3.org/1999/xlink" x="0px" y="0px"
	 viewBox="-611 314 22 22" style="enable-background:new -611 314 22 22;" xml:space="preserve">
<style type="text/css">
	.st0{fill:#928E8B;}
	.st1{fill:none;}
</style>
<path id="calendario_1_" class="st0" d="M-606,318v-2c0-0.7,0.3-1,1-1s1,0.3,1,1v2c0,0.7-0.3,1-1,1S-606,318.6-606,318z M-597,318.9
	c0.7,0,1-0.3,1-1v-2c0-0.7-0.3-1-1-1s-1,0.3-1,1v2C-598,318.6-597.7,318.9-597,318.9z M-592,333h-18v-14.8h3.5c0,1,1,2,2,2s2-1,2-2
	h4c0,1,1,2,2,2s2-1,2-2h2.5V333z M-594,321.2h-15V332h15V321.2z M-591,319.2V334h-18v1h17.5h1.5v-1.3v-14.5H-591z M-604,322.2h-3v3
	h3V322.2z M-600,322.2h-3v3h3V322.2z M-596,322.2h-3v3h3V322.2z M-604,326.1h-3v3h3V326.1z M-600,326.1h-3v3h3V326.1z M-596,326.1
	h-3v3h3V326.1z"/>
<rect id="_x3C_Sector_x3E__100_" x="-611" y="314" class="st1" width="22" height="22"/>
</svg>
