<?xml version="1.0" encoding="utf-8"?>
<!-- Generator: Adobe Illustrator 19.0.0, SVG Export Plug-In . SVG Version: 6.00 Build 0)  -->
<svg version="1.1" id="Layer_1" xmlns="http://www.w3.org/2000/svg" xmlns:xlink="http://www.w3.org/1999/xlink" x="0px" y="0px"
	 viewBox="-612 314 20 20" style="enable-background:new -612 314 20 20;" xml:space="preserve">
<style type="text/css">
	.st0{fill:#FF0000;}
	.st1{fill:none;}
	.st2{fill:#FFFFFF;}
</style>
<path class="st0" d="M-602,315c-4.9,0-9,4.1-9,9s4.1,9,9,9s9-4.1,9-9S-597.1,315-602,315z"/>
<rect id="cerrar-header_1_" x="-612" y="314" class="st1" width="20" height="20"/>
<g>
	<rect x="-603" y="317.7" class="st2" width="2" height="5.9"/>
	<path class="st2" d="M-599.8,318.8v2.2c1.1,0.7,1.8,1.9,1.8,3.3c0,2.2-1.8,4-4,4c-2.2,0-4-1.8-4-4c0-1.4,0.7-2.6,1.8-3.3v-2.2
		c-2.2,0.9-3.7,3-3.7,5.5c0,3.3,2.7,5.9,5.9,5.9c3.3,0,5.9-2.7,5.9-5.9C-596.1,321.8-597.6,319.7-599.8,318.8z"/>
</g>
</svg>
