<?xml version="1.0" encoding="utf-8"?>
<!-- Generator: Adobe Illustrator 19.0.0, SVG Export Plug-In . SVG Version: 6.00 Build 0)  -->
<svg version="1.1" id="Layer_1" xmlns="http://www.w3.org/2000/svg" xmlns:xlink="http://www.w3.org/1999/xlink" x="0px" y="0px"
	 viewBox="-598 301 48 48" style="enable-background:new -598 301 48 48;" xml:space="preserve">
<style type="text/css">
	.st0{fill:#FF0000;}
	.st1{fill:none;}
</style>
<path class="st0" d="M-585,325l6.4,8h3.6l12.1-16h-6.3l-7.7,10.9l-2.2-2.9H-585z"/>
<rect id="_x3C_Sector_x3E__107_" x="-598" y="301" class="st1" width="48" height="48"/>
<path class="st0" d="M-556,302h-36c-2.8,0-5,2.2-5,5v36c0,2.8,2.2,5,5,5h36c2.8,0,5-2.2,5-5v-36C-551,304.2-553.2,302-556,302z
	 M-555.5,338.5c0,2.8-2.2,5-5,5h-27c-2.8,0-5-2.2-5-5v-27c0-2.8,2.2-5,5-5h27c2.8,0,5,2.2,5,5V338.5z"/>
</svg>
