<?xml version="1.0" encoding="utf-8"?>
<!-- Generator: Adobe Illustrator 19.0.0, SVG Export Plug-In . SVG Version: 6.00 Build 0)  -->
<svg version="1.1" id="Capa_1" xmlns="http://www.w3.org/2000/svg" xmlns:xlink="http://www.w3.org/1999/xlink" x="0px" y="0px"
	 viewBox="0 0 22.4 23" style="enable-background:new 0 0 22.4 23;" xml:space="preserve">
<style type="text/css">
	.elemenos_x002D_grises_x0020_5{fill-rule:evenodd;clip-rule:evenodd;fill:#928E8B;}
	.st0{fill:#928E8B;}
</style>
<g id="XMLID_116_">
	<path id="calendario_3_" class="elemenos_x002D_grises_x0020_5" d="M5.2,4V2c0-0.7,0.3-1,1-1c0.7,0,1,0.3,1,1v2c0,0.7-0.3,1-1,1
		S5.2,4.7,5.2,4z M14.2,5c0.7,0,1-0.3,1-1V2c0-0.7-0.3-1-1-1s-1,0.3-1,1v2C13.2,4.7,13.5,5,14.2,5z M19.2,19.6h-18v-15h4.1
		c0,1,1,2,2,2c1,0,2-1,2-2h4c0,1,1,2,2,2s2-1,2-2h1.9V19.6z M17.2,7.6h-15v11h15V7.6z M20.2,5.6v15h-18v1h18.1h0.9V20V5.6H20.2z"/>
	<g id="XMLID_117_">
		<path id="XMLID_121_" class="st0" d="M13.7,10.2l-3.9,7H7.3l4.1-7.1H6.9V8.4h6.8V10.2z"/>
	</g>
</g>
</svg>
