<?xml version="1.0" encoding="utf-8"?>
<!-- Generator: Adobe Illustrator 19.0.0, SVG Export Plug-In . SVG Version: 6.00 Build 0)  -->
<svg version="1.1" id="Capa_1" xmlns="http://www.w3.org/2000/svg" xmlns:xlink="http://www.w3.org/1999/xlink" x="0px" y="0px"
	 viewBox="0 0 22.4 23" style="enable-background:new 0 0 22.4 23;" xml:space="preserve">
<style type="text/css">
	.st0{fill-rule:evenodd;clip-rule:evenodd;fill:#928E8B;}
	.st1{fill:#928E8B;}
</style>
<g id="XMLID_1612_">
	<g id="XMLID_1675_">
		<g id="XMLID_2010_">
			<g id="XMLID_18_">
				<path id="XMLID_19_" class="st0" d="M11.5,6.8h-0.7c-0.5,0-0.7,0.3-0.7,0.7v4.3c0,0.5,0.3,0.7,0.7,0.7h0.7
					c0.5,0,0.7-0.3,0.7-0.7V7.5C12.2,7.1,12,6.8,11.5,6.8z"/>
			</g>
		</g>
		<g id="XMLID_1676_">
			<g id="XMLID_16_">
				<path id="XMLID_17_" class="st0" d="M13.7,10.4h-2.9c-0.5,0-0.7,0.3-0.7,0.7v0.7c0,0.5,0.3,0.7,0.7,0.7h2.9
					c0.5,0,0.7-0.3,0.7-0.7v-0.7C14.4,10.7,14.1,10.4,13.7,10.4z"/>
			</g>
		</g>
	</g>
	<path id="XMLID_1613_" class="st1" d="M11.2,2.5c-5,0-9,4-9,9c0,5,4,9,9,9c5,0,9-4,9-9C20.2,6.5,16.1,2.5,11.2,2.5z M11.2,18.7
		c-4,0-7.2-3.2-7.2-7.2s3.2-7.2,7.2-7.2c4,0,7.2,3.2,7.2,7.2S15.1,18.7,11.2,18.7z"/>
</g>
</svg>
