<?xml version="1.0" encoding="utf-8"?>
<!-- Generator: Adobe Illustrator 19.0.0, SVG Export Plug-In . SVG Version: 6.00 Build 0)  -->
<svg version="1.1" id="Capa_1" xmlns="http://www.w3.org/2000/svg" xmlns:xlink="http://www.w3.org/1999/xlink" x="0px" y="0px"
	 viewBox="0 0 22.4 23" style="enable-background:new 0 0 22.4 23;" xml:space="preserve">
<style type="text/css">
	.elemenos_x002D_grises_x0020_3{fill-rule:evenodd;clip-rule:evenodd;fill:#928E8B;}
	.st0{fill-rule:evenodd;clip-rule:evenodd;fill:#454545;}
</style>
<g id="XMLID_121_">
	<path id="XMLID_116_" class="elemenos_x002D_grises_x0020_3" d="M5,3.9v-2c0-0.7,0.3-1,1-1c0.7,0,1,0.3,1,1v2c0,0.7-0.3,1-1,1
		C5.3,4.9,5,4.6,5,3.9z M14,4.9c0.7,0,1-0.3,1-1v-2c0-0.7-0.3-1-1-1c-0.7,0-1,0.3-1,1v2C13,4.6,13.3,4.9,14,4.9z M19,4.4v15H1v-15
		h3.7c0,1,1,2,2,2c1,0,2-1,2-2h4c0,1,1,2,2,2c1,0,2-1,2-2H19z M17,7.4H2v11h15V7.4z M20,6.4v15H2v1h17.7H21v-2.5V6.4H20z M9,8.4H5v4
		h4V8.4z M14,8.4h-4v4h4V8.4z M9,13.4H5v4h4V13.4z M14,13.4h-4v4h4V13.4z"/>
	<rect id="XMLID_117_" x="10" y="13.4" class="st0" width="4" height="4"/>
</g>
</svg>
