<?xml version="1.0" encoding="utf-8"?>
<!-- Generator: Adobe Illustrator 19.0.0, SVG Export Plug-In . SVG Version: 6.00 Build 0)  -->
<svg version="1.1" id="Layer_1" xmlns="http://www.w3.org/2000/svg" xmlns:xlink="http://www.w3.org/1999/xlink" x="0px" y="0px"
	 viewBox="-611 312 23 23" style="enable-background:new -611 312 23 23;" xml:space="preserve">
<style type="text/css">
	.st0{fill:none;}
	.st1{fill:#E1E1DF;}
</style>
<rect id="header_engrane_1_" x="-611" y="312" class="st0" width="23" height="23"/>
<path class="st1" d="M-589.5,322.1l-1.7-0.3c-0.2-1-0.6-2-1.2-2.8l0.9-1.4c0.2-0.2,0.2-0.5,0-0.8l-1.3-1.3c-0.2-0.2-0.5-0.2-0.8,0
	l-1.4,0.9c-0.9-0.6-1.8-1-2.8-1.2l-0.3-1.7c0-0.3-0.2-0.5-0.5-0.5h-1.8c-0.3,0-0.5,0.2-0.5,0.5l-0.3,1.7c-1,0.2-2,0.6-2.8,1.2
	l-1.4-0.9c-0.2-0.2-0.5-0.2-0.8,0l-1.3,1.3c-0.2,0.2-0.2,0.5,0,0.8l0.9,1.4c-0.6,0.9-1,1.8-1.2,2.8l-1.7,0.3c-0.3,0-0.5,0.2-0.5,0.5
	v1.8c0,0.3,0.2,0.5,0.5,0.5l1.7,0.3c0.2,1,0.6,2,1.2,2.8l-0.9,1.4c-0.2,0.2-0.2,0.5,0,0.8l1.3,1.3c0.2,0.2,0.5,0.2,0.8,0l1.4-0.9
	c0.9,0.6,1.8,1,2.8,1.2l0.3,1.7c0,0.3,0.2,0.5,0.5,0.5h1.8c0.3,0,0.5-0.2,0.5-0.5l0.3-1.7c1-0.2,2-0.6,2.8-1.2l1.4,0.9
	c0.2,0.2,0.5,0.2,0.8,0l1.3-1.3c0.2-0.2,0.2-0.5,0-0.8l-0.9-1.4c0.6-0.9,1-1.8,1.2-2.8l1.7-0.3c0.3,0,0.5-0.2,0.5-0.5v-1.8
	C-589,322.3-589.2,322.1-589.5,322.1z M-595.5,323.5c0,2.2-1.8,4-4,4c-2.2,0-4-1.8-4-4c0-2.2,1.8-4,4-4
	C-597.3,319.5-595.5,321.3-595.5,323.5z"/>
</svg>
