<?xml version="1.0" encoding="utf-8"?>
<!-- Generator: Adobe Illustrator 19.0.0, SVG Export Plug-In . SVG Version: 6.00 Build 0)  -->
<svg version="1.1" id="Layer_1" xmlns="http://www.w3.org/2000/svg" xmlns:xlink="http://www.w3.org/1999/xlink" x="0px" y="0px"
	 viewBox="-612 311 19 22" style="enable-background:new -612 311 19 22;" xml:space="preserve">
<style type="text/css">
	.st0{fill:#E1E1DF;}
	.st1{fill:none;}
</style>
<g>
	<g>
		<g id="XMLID_392_">
			<path id="XMLID_393_" class="st0" d="M-597.1,315.1c0-2.5-2.1-3.1-3.5-3.1c-1.4,0-3.5,0.6-3.5,3.1c0,1.2,2.8,5.6,3.5,6.9
				C-599.9,320.7-597.1,316.4-597.1,315.1z M-601.7,315.1c0-0.6,0.5-1.1,1.1-1.1c0.6,0,1.1,0.5,1.1,1.1s-0.5,1.1-1.1,1.1
				C-601.2,316.2-601.7,315.7-601.7,315.1z M-594.4,328.3l-0.1-0.2c-0.3-0.6-3.8-1.6-4.1-1.6h-0.3c-0.5,0.1-1,0.5-2.1,1.4
				c-1.2-0.5-3-2-3.8-2.8c-0.9-0.9-2-2.4-2.4-3.6c1.3-1,1.8-1.5,1.8-2c0-0.3-0.6-3.6-1.2-3.9l-0.1-0.1c-0.4-0.2-1-0.6-1.7-0.5
				c-0.2,0-0.3,0.1-0.5,0.2c-0.4,0.3-1.5,1-2,1.9c-0.3,0.6-0.5,5.9,3.8,10.4c4.3,4.4,9.5,4.6,10.3,4.5l0,0h0.1
				c1.1-0.4,2-1.3,2.3-1.7C-593.7,329.6-594.2,328.7-594.4,328.3z"/>
		</g>
	</g>
</g>
<rect id="contacto-header_1_" x="-612" y="311" class="st1" width="19" height="22"/>
</svg>
