<?xml version="1.0" encoding="utf-8"?>
<!-- Generator: Adobe Illustrator 19.0.0, SVG Export Plug-In . SVG Version: 6.00 Build 0)  -->
<svg version="1.1" id="Layer_1" xmlns="http://www.w3.org/2000/svg" xmlns:xlink="http://www.w3.org/1999/xlink" x="0px" y="0px"
	 viewBox="-1 1 53 14" style="enable-background:new -1 1 53 14;" xml:space="preserve">
<style type="text/css">
	.st0{fill:#FF0000;}
	.st1{fill:#999999;}
	.st2{fill:#FFFFFF;}
</style>
<g>
	<g id="XMLID_15_">
		<g id="XMLID_1_">
			<rect x="28.7" y="13" class="st0" width="22.3" height="1"/>
		</g>
	</g>
	<g>
		<path class="st1" d="M4.2,8.2H1v2.9h3.5V12H0V3.9h4.3v0.9H1v2.5h3.1V8.2z"/>
		<path class="st1" d="M6.2,10.7c0.5,0.3,1.1,0.5,1.9,0.5c1.1,0,1.7-0.6,1.7-1.4c0-0.8-0.4-1.2-1.5-1.6C6.9,7.8,6.1,7.1,6.1,6
			c0-1.3,1-2.2,2.6-2.2c0.8,0,1.4,0.2,1.8,0.4L10.2,5C9.9,4.9,9.4,4.6,8.7,4.6c-1.1,0-1.5,0.7-1.5,1.2c0,0.8,0.5,1.1,1.6,1.6
			c1.4,0.5,2,1.2,2,2.4c0,1.2-0.9,2.3-2.8,2.3c-0.8,0-1.6-0.2-2-0.5L6.2,10.7z"/>
		<path class="st1" d="M12.7,4c0.5-0.1,1.2-0.2,2-0.2c1,0,1.8,0.2,2.3,0.7c0.4,0.4,0.7,1,0.7,1.7c0,0.7-0.2,1.3-0.6,1.7
			c-0.5,0.6-1.4,0.9-2.5,0.9c-0.3,0-0.6,0-0.8-0.1V12h-1V4z M13.7,7.9C13.9,7.9,14.2,8,14.6,8c1.3,0,2-0.6,2-1.7
			c0-1.1-0.7-1.6-1.9-1.6c-0.5,0-0.8,0-1,0.1V7.9z"/>
		<path class="st2" d="M23.4,2v12h-0.8V2H23.4z"/>
		<path class="st2" d="M33.5,8.6h-3v1.9h3.3V12h-5.1V3.9h5v1.5h-3.1v1.7h3V8.6z"/>
		<path class="st2" d="M35.5,12V3.9h2.1l1.7,3c0.5,0.8,1,1.9,1.3,2.8h0c-0.1-1.1-0.2-2.2-0.2-3.4V3.9h1.7V12h-1.9l-1.7-3.1
			C38.1,8,37.6,7,37.2,6l0,0c0,1.1,0.1,2.2,0.1,3.5V12H35.5z"/>
		<path class="st2" d="M50.9,11.6c-0.6,0.2-1.6,0.5-2.7,0.5c-1.5,0-2.5-0.4-3.3-1.1c-0.7-0.7-1.1-1.7-1.1-2.9c0-2.7,2-4.2,4.6-4.2
			c1,0,1.8,0.2,2.2,0.4l-0.4,1.5c-0.4-0.2-1-0.3-1.9-0.3c-1.5,0-2.7,0.9-2.7,2.6c0,1.7,1,2.6,2.5,2.6c0.4,0,0.8,0,0.9-0.1V8.8H48
			V7.3h3V11.6z"/>
	</g>
</g>
</svg>
