<?xml version="1.0" encoding="utf-8"?>
<!-- Generator: Adobe Illustrator 19.0.0, SVG Export Plug-In . SVG Version: 6.00 Build 0)  -->
<svg version="1.1" id="Layer_1" xmlns="http://www.w3.org/2000/svg" xmlns:xlink="http://www.w3.org/1999/xlink" x="0px" y="0px"
	 viewBox="-4 2 53 14" style="enable-background:new -4 2 53 14;" xml:space="preserve">
<style type="text/css">
	.st0{fill:#FFFFFF;}
	.st1{fill:#999999;}
	.st2{fill:#FF0000;}
</style>
<g>
	<g>
		<path class="st0" d="M1.7,9.6h-2.9v1.9h3.3V13H-3V4.9h4.9v1.5h-3.1v1.7h2.9V9.6z"/>
		<path class="st0" d="M3.8,11.1c0.5,0.3,1.2,0.5,2,0.5s1.3-0.3,1.3-0.9c0-0.5-0.4-0.8-1.3-1.1C4.5,9.1,3.6,8.4,3.6,7.2
			c0-1.4,1.1-2.4,3-2.4c0.9,0,1.6,0.2,2,0.4L8.2,6.7C7.9,6.5,7.3,6.3,6.5,6.3S5.3,6.7,5.3,7.1c0,0.5,0.4,0.7,1.5,1.1
			C8.3,8.7,9,9.5,9,10.6c0,1.4-1,2.5-3.2,2.5c-0.9,0-1.8-0.2-2.3-0.5L3.8,11.1z"/>
		<path class="st0" d="M10.7,5c0.6-0.1,1.3-0.2,2.4-0.2S15,5,15.5,5.4s0.9,1.1,0.9,1.9s-0.3,1.5-0.7,1.9c-0.6,0.6-1.5,0.9-2.6,0.9
			c-0.2,0-0.4,0-0.6,0V13h-1.8C10.7,13,10.7,5,10.7,5z M12.4,8.7c0.2,0,0.3,0,0.6,0c1,0,1.5-0.5,1.5-1.3c0-0.7-0.5-1.2-1.4-1.2
			c-0.4,0-0.6,0-0.7,0.1C12.4,6.3,12.4,8.7,12.4,8.7z"/>
		<path class="st0" d="M22,3v12h-0.8V3H22z"/>
		<path class="st1" d="M31.5,9.2h-3.1v2.9h3.5V13h-4.5V4.9h4.3v0.9h-3.3v2.6h3.1V9.2z"/>
		<path class="st1" d="M33.7,13V4.9h1.1L37.4,9c0.6,0.9,1.1,1.8,1.4,2.6l0,0c-0.1-1.1-0.1-2.1-0.1-3.3V4.9h1V13h-1l-2.5-4.1
			C35.5,8,35,7.1,34.6,6.2l0,0c0.1,1,0.1,2,0.1,3.3V13H33.7z"/>
		<path class="st1" d="M48,12.6c-0.5,0.2-1.4,0.4-2.4,0.4c-1.2,0-2.2-0.3-3-1.1c-0.7-0.7-1.1-1.8-1.1-3c0-2.4,1.6-4.2,4.3-4.2
			c0.9,0,1.6,0.2,2,0.4L47.6,6c-0.4-0.2-1-0.3-1.8-0.3c-1.9,0-3.2,1.2-3.2,3.3s1.2,3.3,3.1,3.3c0.7,0,1.1-0.1,1.4-0.2V9.6h-1.6V8.8
			H48V12.6z"/>
	</g>
	<rect x="-3" y="13.9" class="st2" width="19.3" height="1"/>
</g>
</svg>
