<?xml version="1.0" encoding="utf-8"?>
<!-- Generator: Adobe Illustrator 19.0.0, SVG Export Plug-In . SVG Version: 6.00 Build 0)  -->
<svg version="1.1" id="Layer_1" xmlns="http://www.w3.org/2000/svg" xmlns:xlink="http://www.w3.org/1999/xlink" x="0px" y="0px"
	 viewBox="0 0 13 13" style="enable-background:new 0 0 13 13;" xml:space="preserve">
<style type="text/css">
	.st0{fill-rule:evenodd;clip-rule:evenodd;fill:#FFB000;}
</style>
<symbol  id="estrella-amarilla" viewBox="0 -11.7 12.2 11.7">
	<path id="XMLID_1792_" class="st0" d="M6.9-0.6l0.9-2.6c0.1-0.4,0.4-0.6,0.8-0.6h2.8c0.8,0,1.2-1.1,0.5-1.6L9.6-7
		C9.3-7.2,9.2-7.6,9.3-8l0.9-2.6c0.3-0.8-0.7-1.5-1.3-1L6.6-9.9c-0.3,0.2-0.7,0.2-1,0l-2.2-1.6c-0.7-0.5-1.6,0.2-1.3,1L2.9-8
		c0.1,0.4,0,0.7-0.3,1L0.4-5.4C-0.3-4.9,0-3.8,0.9-3.8h2.8c0.4,0,0.7,0.2,0.8,0.6l0.9,2.6C5.6,0.2,6.7,0.2,6.9-0.6z"/>
</symbol>
<use xlink:href="#estrella-amarilla"  width="12.2" height="11.7" id="XMLID_1788_" x="0" y="-11.7" transform="matrix(1 0 0 -1 0.3789 0.6361)" style="overflow:visible;"/>
</svg>
