<?xml version="1.0" encoding="utf-8"?>
<!-- Generator: Adobe Illustrator 19.0.0, SVG Export Plug-In . SVG Version: 6.00 Build 0)  -->
<svg version="1.1" id="Layer_1" xmlns="http://www.w3.org/2000/svg" xmlns:xlink="http://www.w3.org/1999/xlink" x="0px" y="0px"
	 viewBox="-599 303 52 48" style="enable-background:new -599 303 52 48;" xml:space="preserve">
<style type="text/css">
	.st0{fill:#ED2224;}
</style>
<g id="icono-alerta">
	<g>
		<g>
			<path class="st0" d="M-569.1,323c0-1.1-0.9-2-2-2h-3c-1.1,0-2,0.9-2,2v11c0,1.1,0.9,2,2,2h3c1.1,0,2-0.9,2-2V323z M-548.7,344
				l-21.9-39c-0.8-1.4-4.2-1.4-5,0l-21.9,39c-2,3.7,1,6,3,6h42.7C-549.9,350-546.6,347.9-548.7,344z M-558.6,344h-28.8
				c-1.6,0-1.8-1.6-1-3l14.9-29c0.3-0.7,0.6-0.7,1,0l14.9,29C-556.8,342.4-556.9,344-558.6,344z M-571.5,338h-3
				c-0.8,0-1.6,0.2-1.6,1.1v2c0,0.8,0.8,0.9,1.6,0.9h3c0.8,0,2.4-0.1,2.4-0.9v-2C-569.1,338.3-570.6,338-571.5,338z"/>
		</g>
	</g>
</g>
</svg>
