<?xml version="1.0" encoding="utf-8"?>
<!-- Generator: Adobe Illustrator 19.0.0, SVG Export Plug-In . SVG Version: 6.00 Build 0)  -->
<svg version="1.1" id="Layer_1" xmlns="http://www.w3.org/2000/svg" xmlns:xlink="http://www.w3.org/1999/xlink" x="0px" y="0px"
	 viewBox="-613 317 22 15" style="enable-background:new -613 317 22 15;" xml:space="preserve">
<style type="text/css">
	.st0{fill:none;}
	.st1{fill:#767772;}
</style>
<g id="vista-previa">
</g>
<rect id="_x3C_Sector_x3E__84_" x="-613" y="317" class="st0" width="22" height="15"/>
<g>
	<path class="st1" d="M-602,326.4c-1.1,0-2-0.9-2-2s0.9-2,2-2c1.1,0,2,0.9,2,2S-600.9,326.4-602,326.4z"/>
	<path class="st1" d="M-602,318c-6.2,0-10,6.5-10,6.5s4.4,6.5,10,6.5c5.6,0,10-6.5,10-6.5S-595.8,318-602,318z M-602,328.4
		c-2.2,0-4-1.8-4-3.9c0-2.2,1.8-3.9,4-3.9c2.2,0,4,1.8,4,3.9C-598,326.6-599.8,328.3-602,328.4z"/>
</g>
</svg>
