<?xml version="1.0" encoding="utf-8"?>
<!-- Generator: Adobe Illustrator 19.0.0, SVG Export Plug-In . SVG Version: 6.00 Build 0)  -->
<svg version="1.1" id="Capa_1" xmlns="http://www.w3.org/2000/svg" xmlns:xlink="http://www.w3.org/1999/xlink" x="0px" y="0px"
	 viewBox="0 0 42 34" style="enable-background:new 0 0 42 34;" xml:space="preserve">
<style type="text/css">
	.st0{fill-rule:evenodd;clip-rule:evenodd;fill:#D3D4D4;}
	.st1{fill:#D3D4D4;}
	.st2{fill-rule:evenodd;clip-rule:evenodd;fill:#FFFFFF;}
	.st3{fill:#878681;}
	.st4{fill-rule:evenodd;clip-rule:evenodd;fill:#6E7069;}
</style>
<g id="XMLID_1951_">
	<g id="XMLID_2047_">
		<g id="XMLID_151_">
			<path id="XMLID_155_" class="st0" d="M4,32.5c-1.4,0-2.5-1.1-2.5-2.5V6c0-1.4,1.1-2.5,2.5-2.5h34c1.4,0,2.5,1.1,2.5,2.5v24
				c0,1.4-1.1,2.5-2.5,2.5H4z"/>
			<path id="XMLID_152_" class="st1" d="M38,4c1.1,0,2,0.9,2,2v24c0,1.1-0.9,2-2,2H4c-1.1,0-2-0.9-2-2V6c0-1.1,0.9-2,2-2H38 M38,3H4
				C2.4,3,1,4.3,1,6v24c0,1.6,1.4,3,3,3h34c1.6,0,3-1.4,3-3V6C41,4.3,39.6,3,38,3L38,3z"/>
		</g>
		<g id="XMLID_146_">
			<path id="XMLID_150_" class="st2" d="M4,30.5c-1.4,0-2.5-1.1-2.5-2.5V4c0-1.4,1.1-2.5,2.5-2.5h34c1.4,0,2.5,1.1,2.5,2.5v24
				c0,1.4-1.1,2.5-2.5,2.5H4z"/>
			<path id="XMLID_147_" class="st3" d="M38,2c1.1,0,2,0.9,2,2v24c0,1.1-0.9,2-2,2H4c-1.1,0-2-0.9-2-2V4c0-1.1,0.9-2,2-2H38 M38,1H4
				C2.4,1,1,2.3,1,4v24c0,1.6,1.4,3,3,3h34c1.6,0,3-1.4,3-3V4C41,2.3,39.6,1,38,1L38,1z"/>
		</g>
	</g>
	<path id="XMLID_1965_" class="st4" d="M22,9l1,3.2c0.1,0.4,0.5,0.7,1,0.7h3.3c1,0,1.4,1.3,0.6,1.9l-2.7,2c-0.4,0.3-0.5,0.7-0.4,1.2
		l1,3.2c0.3,1-0.8,1.7-1.6,1.2l-2.7-2c-0.4-0.3-0.9-0.3-1.2,0l-2.7,2c-0.8,0.6-1.9-0.2-1.6-1.2l1-3.2c0.1-0.4,0-0.9-0.4-1.2l-2.7-2
		c-0.8-0.6-0.4-1.9,0.6-1.9H18c0.4,0,0.8-0.3,1-0.7L20,9C20.3,8.1,21.7,8.1,22,9z"/>
</g>
</svg>
