<?xml version="1.0" encoding="utf-8"?>
<!-- Generator: Adobe Illustrator 19.0.0, SVG Export Plug-In . SVG Version: 6.00 Build 0)  -->
<svg version="1.1" id="Layer_1" xmlns="http://www.w3.org/2000/svg" xmlns:xlink="http://www.w3.org/1999/xlink" x="0px" y="0px"
	 viewBox="-612 319 22 11" style="enable-background:new -612 319 22 11;" xml:space="preserve">
<style type="text/css">
	.st0{fill:#888683;}
	.st1{fill:none;}
</style>
<path id="contrasena-icon_2_" class="st0" d="M-606.1,328l1-2.1h2.5v2h2v-2h1.6c0.7,2,2.3,3.1,4,3.1c2.4,0,3.9-2.1,3.9-4.4
	c0-2.4-1.5-4.6-3.9-4.6c-1.7,0-3.3,1.9-4,2.9h-9l-3,2.1l2,2.1l2-1L-606.1,328z M-593.9,323.3c0.7,0,1.4,0.6,1.4,1.4
	c0,0.8-0.6,1.4-1.4,1.4s-1.4-0.6-1.4-1.4C-595.3,323.9-594.7,323.3-593.9,323.3z"/>
<rect id="_x3C_Sector_x3E__103_" x="-612" y="319" class="st1" width="22" height="11"/>
</svg>
