<?xml version="1.0" encoding="utf-8"?>
<!-- Generator: Adobe Illustrator 19.0.0, SVG Export Plug-In . SVG Version: 6.00 Build 0)  -->
<svg version="1.1" xmlns="http://www.w3.org/2000/svg" xmlns:xlink="http://www.w3.org/1999/xlink" x="0px" y="0px"
	 viewBox="-595 312 133 27" style="enable-background:new -595 312 133 27;" xml:space="preserve">
<style type="text/css">
	.st0{fill:#FFFFFF;}
	.st1{opacity:0.14;fill:#FFFFFF;}
	.st2{opacity:0.28;fill:#FFFFFF;}
	.st3{opacity:0.42;fill:#FFFFFF;}
	.st4{opacity:0.56;fill:#FFFFFF;}
	.st5{opacity:0.68;fill:#FFFFFF;}
	.st6{opacity:0.82;fill:#FFFFFF;}
	.st7{fill:#FF0000;}
	.st8{fill:none;}
</style>
<g id="Layer_2">
	<g>
		<path class="st0" d="M-554.4,326.5h-3v-4.1h3v0.8h-1.9v0.7h1.8v0.8h-1.8v1h1.9V326.5z"/>
		<path class="st0" d="M-550.8,325.6c0,0.3-0.1,0.6-0.4,0.8c-0.3,0.2-0.7,0.3-1.2,0.3c-0.3,0-0.5,0-0.8-0.1
			c-0.2-0.1-0.4-0.1-0.5-0.2v-0.8h0.1c0,0,0.1,0.1,0.2,0.1c0.1,0,0.2,0.1,0.3,0.1c0.1,0,0.2,0.1,0.3,0.1c0.1,0,0.3,0,0.4,0
			c0.2,0,0.3,0,0.4-0.1c0.1,0,0.1-0.1,0.1-0.2c0-0.1,0-0.1-0.1-0.2c-0.1,0-0.2-0.1-0.3-0.1c-0.1,0-0.2,0-0.3-0.1
			c-0.1,0-0.2,0-0.3-0.1c-0.3-0.1-0.5-0.2-0.6-0.3c-0.1-0.2-0.2-0.3-0.2-0.6c0-0.3,0.1-0.5,0.4-0.7c0.3-0.2,0.7-0.3,1.2-0.3
			c0.2,0,0.5,0,0.7,0.1s0.4,0.1,0.5,0.1v0.8h-0.1c-0.1-0.1-0.3-0.2-0.5-0.2s-0.4-0.1-0.6-0.1c-0.2,0-0.3,0-0.4,0.1
			c-0.1,0-0.2,0.1-0.2,0.2c0,0.1,0,0.1,0.1,0.2c0,0,0.2,0.1,0.3,0.1c0.1,0,0.2,0,0.3,0.1c0.1,0,0.2,0,0.4,0.1
			c0.3,0.1,0.5,0.2,0.6,0.3S-550.8,325.3-550.8,325.6z"/>
		<path class="st0" d="M-546.9,325c0,0.3,0,0.5-0.1,0.7c-0.1,0.2-0.2,0.4-0.3,0.5c-0.1,0.1-0.3,0.3-0.4,0.3s-0.3,0.1-0.5,0.1
			c-0.2,0-0.3,0-0.4-0.1c-0.1,0-0.2-0.1-0.4-0.2v1.3h-1v-4.2h1v0.3c0.2-0.1,0.3-0.2,0.5-0.3c0.2-0.1,0.3-0.1,0.5-0.1
			c0.4,0,0.7,0.1,0.9,0.4C-547,324.1-546.9,324.5-546.9,325z M-548,325c0-0.3-0.1-0.5-0.2-0.7c-0.1-0.1-0.3-0.2-0.5-0.2
			c-0.1,0-0.2,0-0.3,0c-0.1,0-0.2,0.1-0.3,0.1v1.6c0.1,0,0.1,0,0.2,0s0.1,0,0.2,0c0.3,0,0.5-0.1,0.6-0.2
			C-548,325.5-548,325.3-548,325z"/>
		<path class="st0" d="M-543.2,325.2h-2.3c0,0.2,0.1,0.4,0.3,0.6c0.2,0.1,0.4,0.2,0.8,0.2c0.2,0,0.4,0,0.6-0.1
			c0.2-0.1,0.4-0.2,0.5-0.2h0.1v0.8c-0.2,0.1-0.4,0.2-0.6,0.2c-0.2,0-0.4,0.1-0.7,0.1c-0.6,0-1.1-0.1-1.4-0.4
			c-0.3-0.3-0.5-0.7-0.5-1.2c0-0.5,0.2-0.9,0.5-1.2c0.3-0.3,0.7-0.4,1.3-0.4c0.5,0,0.9,0.1,1.1,0.4c0.3,0.3,0.4,0.6,0.4,1.1V325.2z
			 M-544.2,324.6c0-0.2-0.1-0.4-0.2-0.5c-0.1-0.1-0.2-0.2-0.5-0.2c-0.2,0-0.3,0-0.5,0.1c-0.1,0.1-0.2,0.3-0.2,0.5H-544.2z"/>
		<path class="st0" d="M-540.2,324.4L-540.2,324.4c-0.1,0-0.2,0-0.3,0c-0.1,0-0.2,0-0.2,0c-0.1,0-0.3,0-0.4,0c-0.1,0-0.2,0-0.3,0.1
			v2.1h-1v-3.1h1v0.5c0.2-0.2,0.4-0.3,0.6-0.4c0.2-0.1,0.3-0.1,0.4-0.1c0,0,0.1,0,0.1,0s0.1,0,0.1,0V324.4z"/>
		<path class="st0" d="M-536.6,325.2h-2.3c0,0.2,0.1,0.4,0.3,0.6c0.2,0.1,0.4,0.2,0.8,0.2c0.2,0,0.4,0,0.6-0.1
			c0.2-0.1,0.4-0.2,0.5-0.2h0.1v0.8c-0.2,0.1-0.4,0.2-0.6,0.2c-0.2,0-0.4,0.1-0.7,0.1c-0.6,0-1.1-0.1-1.4-0.4
			c-0.3-0.3-0.5-0.7-0.5-1.2c0-0.5,0.2-0.9,0.5-1.2c0.3-0.3,0.7-0.4,1.3-0.4c0.5,0,0.9,0.1,1.1,0.4c0.3,0.3,0.4,0.6,0.4,1.1V325.2z
			 M-537.6,324.6c0-0.2-0.1-0.4-0.2-0.5c-0.1-0.1-0.2-0.2-0.5-0.2c-0.2,0-0.3,0-0.5,0.1c-0.1,0.1-0.2,0.3-0.2,0.5H-537.6z"/>
		<path class="st0" d="M-530.9,326.5h-1v-0.3c-0.2,0.1-0.4,0.2-0.5,0.3c-0.2,0.1-0.3,0.1-0.5,0.1c-0.3,0-0.6-0.1-0.8-0.3
			c-0.2-0.2-0.3-0.5-0.3-0.9v-2h1v1.5c0,0.2,0,0.3,0,0.4c0,0.1,0,0.2,0.1,0.3c0,0.1,0.1,0.1,0.2,0.1c0.1,0,0.2,0,0.3,0
			c0.1,0,0.2,0,0.3,0c0.1,0,0.2-0.1,0.3-0.1v-2.2h1V326.5z"/>
		<path class="st0" d="M-526.9,326.5h-1V325c0-0.1,0-0.2,0-0.4s0-0.2-0.1-0.3c0-0.1-0.1-0.1-0.2-0.1c-0.1,0-0.2,0-0.3,0
			c-0.1,0-0.2,0-0.3,0s-0.2,0.1-0.3,0.1v2.2h-1v-3.1h1v0.3c0.2-0.1,0.3-0.2,0.5-0.3c0.2-0.1,0.3-0.1,0.5-0.1c0.3,0,0.6,0.1,0.8,0.3
			c0.2,0.2,0.3,0.5,0.3,0.9V326.5z"/>
		<path class="st0" d="M-521,324.4v2.2h-1V325c0-0.2,0-0.3,0-0.4c0-0.1,0-0.2-0.1-0.3c0-0.1-0.1-0.1-0.2-0.1c-0.1,0-0.2,0-0.3,0
			c-0.1,0-0.2,0-0.3,0.1c-0.1,0-0.2,0.1-0.2,0.1v2.2h-1v-3.1h1v0.3c0.2-0.1,0.3-0.2,0.5-0.3c0.2-0.1,0.3-0.1,0.5-0.1
			c0.2,0,0.4,0,0.5,0.1s0.3,0.2,0.4,0.4c0.2-0.2,0.4-0.3,0.6-0.4c0.2-0.1,0.4-0.1,0.6-0.1c0.3,0,0.6,0.1,0.8,0.3
			c0.2,0.2,0.3,0.5,0.3,0.9v2h-1V325c0-0.2,0-0.3,0-0.4c0-0.1,0-0.2-0.1-0.3c0-0.1-0.1-0.1-0.1-0.1c-0.1,0-0.2,0-0.3,0
			c-0.1,0-0.2,0-0.2,0C-520.8,324.2-520.9,324.3-521,324.4z"/>
		<path class="st0" d="M-514.9,325c0,0.5-0.1,0.9-0.4,1.2c-0.3,0.3-0.7,0.4-1.2,0.4c-0.5,0-1-0.1-1.3-0.4c-0.3-0.3-0.4-0.7-0.4-1.2
			c0-0.5,0.1-0.9,0.4-1.2c0.3-0.3,0.7-0.4,1.2-0.4c0.5,0,1,0.1,1.3,0.4C-515,324.1-514.9,324.5-514.9,325z M-516.1,325.8
			c0.1-0.1,0.1-0.2,0.1-0.3c0-0.1,0-0.3,0-0.5c0-0.2,0-0.3,0-0.5s-0.1-0.2-0.1-0.3c-0.1-0.1-0.1-0.1-0.2-0.2c-0.1,0-0.2,0-0.3,0
			s-0.2,0-0.3,0c-0.1,0-0.1,0.1-0.2,0.2c-0.1,0.1-0.1,0.2-0.1,0.3c0,0.1-0.1,0.3-0.1,0.5c0,0.2,0,0.3,0,0.4s0.1,0.2,0.1,0.3
			c0.1,0.1,0.1,0.1,0.2,0.2c0.1,0,0.2,0,0.3,0c0.1,0,0.2,0,0.3,0C-516.2,325.9-516.1,325.8-516.1,325.8z"/>
		<path class="st0" d="M-511.1,324.4v2.2h-1V325c0-0.2,0-0.3,0-0.4c0-0.1,0-0.2-0.1-0.3c0-0.1-0.1-0.1-0.2-0.1c-0.1,0-0.2,0-0.3,0
			c-0.1,0-0.2,0-0.3,0.1c-0.1,0-0.2,0.1-0.2,0.1v2.2h-1v-3.1h1v0.3c0.2-0.1,0.3-0.2,0.5-0.3c0.2-0.1,0.3-0.1,0.5-0.1
			c0.2,0,0.4,0,0.5,0.1s0.3,0.2,0.4,0.4c0.2-0.2,0.4-0.3,0.6-0.4c0.2-0.1,0.4-0.1,0.6-0.1c0.3,0,0.6,0.1,0.8,0.3
			c0.2,0.2,0.3,0.5,0.3,0.9v2h-1V325c0-0.2,0-0.3,0-0.4c0-0.1,0-0.2-0.1-0.3c0-0.1-0.1-0.1-0.1-0.1c-0.1,0-0.2,0-0.3,0
			c-0.1,0-0.2,0-0.2,0C-510.9,324.2-511,324.3-511.1,324.4z"/>
		<path class="st0" d="M-505.1,325.2h-2.3c0,0.2,0.1,0.4,0.3,0.6c0.2,0.1,0.4,0.2,0.8,0.2c0.2,0,0.4,0,0.6-0.1
			c0.2-0.1,0.4-0.2,0.5-0.2h0.1v0.8c-0.2,0.1-0.4,0.2-0.6,0.2c-0.2,0-0.4,0.1-0.7,0.1c-0.6,0-1.1-0.1-1.4-0.4
			c-0.3-0.3-0.5-0.7-0.5-1.2c0-0.5,0.2-0.9,0.5-1.2c0.3-0.3,0.7-0.4,1.3-0.4c0.5,0,0.9,0.1,1.1,0.4c0.3,0.3,0.4,0.6,0.4,1.1V325.2z
			 M-506.1,324.6c0-0.2-0.1-0.4-0.2-0.5c-0.1-0.1-0.2-0.2-0.5-0.2c-0.2,0-0.3,0-0.5,0.1c-0.1,0.1-0.2,0.3-0.2,0.5H-506.1z"/>
		<path class="st0" d="M-501.3,326.5h-1V325c0-0.1,0-0.2,0-0.4s0-0.2-0.1-0.3c0-0.1-0.1-0.1-0.2-0.1c-0.1,0-0.2,0-0.3,0
			c-0.1,0-0.2,0-0.3,0s-0.2,0.1-0.3,0.1v2.2h-1v-3.1h1v0.3c0.2-0.1,0.3-0.2,0.5-0.3c0.2-0.1,0.3-0.1,0.5-0.1c0.3,0,0.6,0.1,0.8,0.3
			c0.2,0.2,0.3,0.5,0.3,0.9V326.5z"/>
		<path class="st0" d="M-498.4,326.5c-0.1,0-0.2,0-0.3,0.1s-0.3,0-0.4,0c-0.4,0-0.7-0.1-0.9-0.2s-0.3-0.4-0.3-0.8v-1.4h-0.4v-0.7
			h0.4v-0.9h1v0.9h0.9v0.7h-0.9v1.1c0,0.1,0,0.2,0,0.3s0,0.2,0,0.2c0,0.1,0.1,0.1,0.1,0.2c0.1,0,0.2,0.1,0.3,0.1c0.1,0,0.1,0,0.2,0
			c0.1,0,0.1,0,0.2-0.1h0.1V326.5z"/>
		<path class="st0" d="M-494.7,325c0,0.5-0.1,0.9-0.4,1.2c-0.3,0.3-0.7,0.4-1.2,0.4c-0.5,0-1-0.1-1.3-0.4c-0.3-0.3-0.4-0.7-0.4-1.2
			c0-0.5,0.1-0.9,0.4-1.2c0.3-0.3,0.7-0.4,1.2-0.4c0.5,0,1,0.1,1.3,0.4C-494.8,324.1-494.7,324.5-494.7,325z M-495.9,325.8
			c0.1-0.1,0.1-0.2,0.1-0.3c0-0.1,0-0.3,0-0.5c0-0.2,0-0.3,0-0.5s-0.1-0.2-0.1-0.3c-0.1-0.1-0.1-0.1-0.2-0.2c-0.1,0-0.2,0-0.3,0
			s-0.2,0-0.3,0c-0.1,0-0.1,0.1-0.2,0.2c-0.1,0.1-0.1,0.2-0.1,0.3c0,0.1-0.1,0.3-0.1,0.5c0,0.2,0,0.3,0,0.4s0.1,0.2,0.1,0.3
			c0.1,0.1,0.1,0.1,0.2,0.2c0.1,0,0.2,0,0.3,0c0.1,0,0.2,0,0.3,0C-496,325.9-496,325.8-495.9,325.8z"/>
		<path class="st0" d="M-488.8,325c0,0.3,0,0.5-0.1,0.7c-0.1,0.2-0.2,0.4-0.3,0.5c-0.1,0.1-0.3,0.3-0.4,0.3s-0.3,0.1-0.5,0.1
			c-0.2,0-0.3,0-0.4-0.1c-0.1,0-0.2-0.1-0.4-0.2v1.3h-1v-4.2h1v0.3c0.2-0.1,0.3-0.2,0.5-0.3c0.2-0.1,0.3-0.1,0.5-0.1
			c0.4,0,0.7,0.1,0.9,0.4C-488.9,324.1-488.8,324.5-488.8,325z M-489.8,325c0-0.3-0.1-0.5-0.2-0.7c-0.1-0.1-0.3-0.2-0.5-0.2
			c-0.1,0-0.2,0-0.3,0c-0.1,0-0.2,0.1-0.3,0.1v1.6c0.1,0,0.1,0,0.2,0s0.1,0,0.2,0c0.3,0,0.5-0.1,0.6-0.2
			C-489.9,325.5-489.8,325.3-489.8,325z"/>
		<path class="st0" d="M-484.9,325c0,0.5-0.1,0.9-0.4,1.2c-0.3,0.3-0.7,0.4-1.2,0.4c-0.5,0-1-0.1-1.3-0.4c-0.3-0.3-0.4-0.7-0.4-1.2
			c0-0.5,0.1-0.9,0.4-1.2c0.3-0.3,0.7-0.4,1.2-0.4c0.5,0,1,0.1,1.3,0.4C-485.1,324.1-484.9,324.5-484.9,325z M-486.1,325.8
			c0.1-0.1,0.1-0.2,0.1-0.3c0-0.1,0-0.3,0-0.5c0-0.2,0-0.3,0-0.5s-0.1-0.2-0.1-0.3c-0.1-0.1-0.1-0.1-0.2-0.2c-0.1,0-0.2,0-0.3,0
			s-0.2,0-0.3,0c-0.1,0-0.1,0.1-0.2,0.2c-0.1,0.1-0.1,0.2-0.1,0.3c0,0.1-0.1,0.3-0.1,0.5c0,0.2,0,0.3,0,0.4s0.1,0.2,0.1,0.3
			c0.1,0.1,0.1,0.1,0.2,0.2c0.1,0,0.2,0,0.3,0c0.1,0,0.2,0,0.3,0C-486.3,325.9-486.2,325.8-486.1,325.8z"/>
		<path class="st0" d="M-482,324.4L-482,324.4c-0.1,0-0.2,0-0.3,0c-0.1,0-0.2,0-0.2,0c-0.1,0-0.3,0-0.4,0c-0.1,0-0.2,0-0.3,0.1v2.1
			h-1v-3.1h1v0.5c0.2-0.2,0.4-0.3,0.6-0.4c0.2-0.1,0.3-0.1,0.4-0.1c0,0,0.1,0,0.1,0s0.1,0,0.1,0V324.4z"/>
		<path class="st0" d="M-477.5,323L-477.5,323c-0.1,0-0.2,0-0.2,0c-0.1,0-0.1,0-0.2,0c-0.2,0-0.3,0-0.4,0.1
			c-0.1,0.1-0.1,0.2-0.1,0.4v0h0.8v0.7h-0.7v2.4h-1v-2.4h-0.4v-0.7h0.4v-0.1c0-0.4,0.1-0.7,0.3-0.9s0.5-0.3,0.9-0.3
			c0.1,0,0.3,0,0.4,0c0.1,0,0.2,0,0.3,0V323z"/>
		<path class="st0" d="M-475.2,326.2c-0.1,0-0.1,0.1-0.2,0.1c-0.1,0.1-0.2,0.1-0.2,0.1c-0.1,0-0.2,0.1-0.3,0.1c-0.1,0-0.2,0-0.3,0
			c-0.3,0-0.5-0.1-0.7-0.3c-0.2-0.2-0.3-0.4-0.3-0.7c0-0.2,0.1-0.4,0.2-0.6c0.1-0.1,0.2-0.3,0.4-0.3c0.2-0.1,0.4-0.1,0.7-0.2
			c0.3,0,0.6-0.1,0.8-0.1v0c0-0.2-0.1-0.3-0.2-0.4c-0.1-0.1-0.3-0.1-0.6-0.1c-0.2,0-0.3,0-0.5,0.1c-0.2,0.1-0.3,0.1-0.4,0.1h-0.1
			v-0.7c0.1,0,0.3-0.1,0.5-0.1s0.5-0.1,0.7-0.1c0.6,0,1,0.1,1.2,0.3c0.3,0.2,0.4,0.4,0.4,0.8v2.1h-1V326.2z M-475.2,325.7v-0.6
			c-0.1,0-0.3,0-0.4,0s-0.3,0-0.4,0.1c-0.1,0-0.2,0.1-0.2,0.1c-0.1,0.1-0.1,0.1-0.1,0.2c0,0.1,0,0.1,0,0.2c0,0,0,0.1,0.1,0.1
			c0,0,0.1,0.1,0.2,0.1s0.2,0,0.3,0c0.1,0,0.2,0,0.3-0.1C-475.4,325.9-475.3,325.8-475.2,325.7z"/>
		<path class="st0" d="M-470.2,323.5l-1.2,3.1h-1.1l-1.2-3.1h1l0.7,2.1l0.7-2.1H-470.2z"/>
		<path class="st0" d="M-466.5,325c0,0.5-0.1,0.9-0.4,1.2c-0.3,0.3-0.7,0.4-1.2,0.4c-0.5,0-1-0.1-1.3-0.4c-0.3-0.3-0.4-0.7-0.4-1.2
			c0-0.5,0.1-0.9,0.4-1.2c0.3-0.3,0.7-0.4,1.2-0.4c0.5,0,1,0.1,1.3,0.4C-466.6,324.1-466.5,324.5-466.5,325z M-467.7,325.8
			c0.1-0.1,0.1-0.2,0.1-0.3c0-0.1,0-0.3,0-0.5c0-0.2,0-0.3,0-0.5s-0.1-0.2-0.1-0.3c-0.1-0.1-0.1-0.1-0.2-0.2c-0.1,0-0.2,0-0.3,0
			s-0.2,0-0.3,0c-0.1,0-0.1,0.1-0.2,0.2c-0.1,0.1-0.1,0.2-0.1,0.3c0,0.1-0.1,0.3-0.1,0.5c0,0.2,0,0.3,0,0.4s0.1,0.2,0.1,0.3
			c0.1,0.1,0.1,0.1,0.2,0.2c0.1,0,0.2,0,0.3,0c0.1,0,0.2,0,0.3,0C-467.8,325.9-467.8,325.8-467.7,325.8z"/>
		<path class="st0" d="M-463.5,324.4L-463.5,324.4c-0.1,0-0.2,0-0.3,0c-0.1,0-0.2,0-0.2,0c-0.1,0-0.3,0-0.4,0c-0.1,0-0.2,0-0.3,0.1
			v2.1h-1v-3.1h1v0.5c0.2-0.2,0.4-0.3,0.6-0.4c0.2-0.1,0.3-0.1,0.4-0.1c0,0,0.1,0,0.1,0s0.1,0,0.1,0V324.4z"/>
	</g>
	<circle class="st1" cx="-555.2" cy="332.8" r="2.2"/>
	<circle class="st2" cx="-540.3" cy="332.8" r="2.2"/>
	<circle class="st3" cx="-525.3" cy="332.8" r="2.2"/>
	<circle class="st4" cx="-510.4" cy="332.8" r="2.2"/>
	<circle class="st5" cx="-495.4" cy="332.8" r="2.2"/>
	<circle class="st6" cx="-480.5" cy="332.8" r="2.2"/>
	<circle class="st0" cx="-465.6" cy="332.8" r="2.2"/>
</g>
<g id="Layer_1">
	<g>
		<g id="XMLID_366_">
			<path id="XMLID_367_" class="st7" d="M-580.5,320c0-0.6-0.4-1-1-1h-1c-0.6,0-1,0.4-1,1v6c0,0.6,0.4,1,1,1h1c0.6,0,1-0.4,1-1V320z
				"/>
		</g>
	</g>
	<g>
		<g id="XMLID_364_">
			<path id="XMLID_365_" class="st7" d="M-577.5,325c0-0.6-0.4-1-1-1h-4c-0.6,0-1,0.4-1,1v1c0,0.6,0.4,1,1,1h4c0.6,0,1-0.4,1-1V325z
				"/>
		</g>
	</g>
	<path class="st7" d="M-581.5,313c-6.9,0-12.5,5.6-12.5,12.5s5.6,12.5,12.5,12.5s12.5-5.6,12.5-12.5S-574.6,313-581.5,313z
		 M-581.5,335.5c-5.5,0-10-4.5-10-10s4.5-10,10-10s10,4.5,10,10S-576,335.5-581.5,335.5z"/>
	<rect id="_x3C_Sector_x3E__91_" x="-595" y="312" class="st8" width="133" height="27"/>
</g>
</svg>
