<?xml version="1.0" encoding="utf-8"?>
<!-- Generated by IcoMoon.io -->
<!DOCTYPE svg PUBLIC "-//W3C//DTD SVG 1.1//EN" "http://www.w3.org/Graphics/SVG/1.1/DTD/svg11.dtd">
<svg version="1.1" xmlns="http://www.w3.org/2000/svg" xmlns:xlink="http://www.w3.org/1999/xlink" width="3526" height="1024" viewBox="0 0 3526 1024">
<g id="icomoon-ignore">
</g>
<path fill="rgb(255, 0, 0)" d="M-12.755 0h3535.621l-0.193 1024h-3535.505z"></path>
<path fill="rgb(255, 255, 255)" d="M543.451 197.284c0 67.12 114.688 141.621 114.688 218.228 0 0 0 7.4-3.207 15.302 107.269 22.2 183.219 74.52 183.219 135.844 0 82.403-135.438 150.084-303.22 150.605-1.082 0.522-2.106 0-3.188 0-166.197 0-301.075-65.536-301.075-147.437 0-61.324 82.306-110.978 181.615-137.39 0 33.811 113.104 141.080 115.731 184.417 0 0 0.541 3.69 0.541 7.941 0 2.087 0 4.231-0.541 6.318 24.441-12.694 24.441-52.321 24.441-52.321 0-94.034-109.916-135.786-109.916-228.275 0-35.898 17.002-62.329 32.382-69.748v25.928c0 67.101 118.977 142.123 118.977 203.428v20.094c27.59-10.588 27.59-60.802 27.59-60.802 0-84.528-110.457-131.555-110.457-228.255 0-35.937 17.002-62.348 32.44-69.748l-0.019 25.87z"></path>
<path fill="rgb(255, 255, 255)" d="M1079.737 691.335c-57.885 0-99.85-16.345-99.85-16.345v-99.908h14.355c7.438 52.842 47.8 92.991 93.976 92.991s78.597-25.349 78.597-65.536c0-42.776-43.027-62.348-71.661-76.645l-41.424-20.557c-39.298-19.553-71.158-51.258-71.158-95.657 0-55.489 41.424-103.018 120.542-103.018 54.156 0 98.748 17.968 98.748 17.968v89.301h-14.317c-8.482-47.548-35.067-85.069-89.223-85.069-40.342 0-64.242 27.455-64.242 55.47 0 36.478 25.445 52.842 55.238 67.661l41.404 20.596c37.695 19.012 84.432 50.698 84.432 104.641-0.039 68.685-47.819 114.108-135.419 114.108v0z"></path>
<path fill="rgb(255, 255, 255)" d="M1347.33 582.521c-11.148 4.734-30.778 13.718-30.778 39.047 0 13.776 7.96 35.956 35.589 35.956 13.254 0 31.841-7.419 45.095-17.988v-78.23l-49.906 21.214zM1325.575 689.249c-36.091 0-59.469-23.765-59.469-59.179 0-25.349 18.587-44.901 59.469-59.701l71.661-25.89v-22.18c0-33.309-15.379-53.924-38.757-53.924-15.901 0-31.841 7.941-39.82 20.615-3.188 4.772-3.729 11.592-3.729 16.906 0 8.984 5.835 19.553 5.835 19.553l-35.048 15.843c-4.251-7.4-9.564-18.471-9.564-29.58 0-2.106 0.541-4.212 0.541-5.816 2.647-19.012 19.089-31.686 41.424-44.901 21.755-13.235 40.342-16.925 53.634-16.925 66.908 0 78.578 52.823 78.578 70.289v109.375c0 17.427 1.604 28.517 15.92 28.517 4.27 0 6.878 0 12.732-2.087l12.752-4.231v15.843l-74.327 27.455c-11.167-7.883-16.481-22.18-18.587-34.314-17.505 14.78-47.761 34.333-73.245 34.333v0z"></path>
<path fill="rgb(255, 255, 255)" d="M1508.214 683.935v-12.674l17.524-3.149c10.626-2.106 18.065-10.047 18.065-20.577v-141.119c0-12.133-5.854-18.49-16.481-18.49-3.69 0-7.941 0.522-12.211 2.087l-6.898 2.686v-15.901l76.472-32.749h11.129v39.125c23.378-25.89 50.987-39.125 75.409-39.125 54.156 0 80.162 38.584 80.162 83.504v119.982c0 10.549 7.979 18.973 18.587 20.577l18.046 3.149v12.674h-126.338v-12.674l17.524-3.149c10.607-2.106 19.128-10.047 19.128-20.577v-119.441c0-15.843-4.27-51.277-46.718-51.277-23.397 0-43.066 14.297-54.716 24.866v145.872c0 10.549 8.482 18.432 19.108 20.557l17.524 3.149v12.694l-125.314-0.019z"></path>
<path fill="rgb(255, 255, 255)" d="M1971.158 476.276h-74.346v131.014c0 29.058 15.399 44.959 37.714 44.959 9.042 0 23.378-2.686 36.632-10.066l5.835 12.674-47.78 30.14c0 0-9.544 1.565-14.355 1.565-46.177 0-71.139-26.933-71.139-84.007v-126.28h-38.757v-13.215c0 0 58.426-22.18 81.224-76.607h10.607v67.12h83.929l-9.564 22.702z"></path>
<path fill="rgb(255, 255, 255)" d="M2082.562 582.521c-11.167 4.734-30.817 13.718-30.817 39.047 0 13.776 7.979 35.956 35.589 35.956 13.293 0 31.879-7.419 45.114-17.988v-78.23l-49.886 21.214zM2060.807 689.249c-36.11 0-59.469-23.765-59.469-59.179 0-25.349 18.587-44.901 59.469-59.701l71.661-25.89v-22.18c0-33.309-15.36-53.924-38.719-53.924-15.978 0-31.899 7.941-39.878 20.615-3.149 4.772-3.69 11.592-3.69 16.906 0 8.984 5.835 19.553 5.835 19.553l-35.029 15.843c-4.251-7.4-9.544-18.471-9.544-29.58 0-2.106 0.483-4.212 0.483-5.816 2.666-19.012 19.128-31.686 41.424-44.901 21.813-13.235 40.4-16.925 53.654-16.925 66.888 0 78.597 52.823 78.597 70.289v109.375c0 17.427 1.584 28.517 15.94 28.517 4.231 0 6.878 0 12.713-2.087l12.752-4.231v15.843l-74.346 27.455c-11.167-7.883-16.481-22.18-18.548-34.314-17.601 14.78-47.819 34.333-73.303 34.333v0z"></path>
<path fill="rgb(255, 255, 255)" d="M2243.426 683.935v-12.674l17.524-3.149c10.626-2.106 18.065-10.047 18.065-20.577v-141.119c0-12.133-5.835-18.49-16.481-18.49-3.69 0-7.941 0.522-12.191 2.087l-6.917 2.686v-15.901l76.452-32.749h11.167v39.125c23.359-25.89 50.949-39.125 75.37-39.125 54.195 0 80.181 38.584 80.181 83.504v119.982c0 10.549 7.999 18.973 18.625 20.577l18.026 3.149v12.674h-126.377v-12.674l17.524-3.149c10.646-2.106 19.108-10.047 19.108-20.577v-119.441c0-15.843-4.251-51.277-46.698-51.277-23.397 0-43.066 14.297-54.697 24.866v145.872c0 10.549 8.482 18.432 19.108 20.557l17.524 3.149v12.694l-125.314-0.019z"></path>
<path fill="rgb(255, 255, 255)" d="M2682.008 466.268c-38.236 0-77.534 24.306-77.534 95.097 0 59.16 29.754 95.135 76.452 95.135 28.131 0 45.655-16.384 49.906-24.846v-137.371c-6.878-17.466-26.527-28.015-48.824-28.015v0zM2658.108 689.249c-49.906 0-109.858-36.98-109.858-117.316 0-70.27 54.658-127.865 127.961-127.865 24.421 0 41.945 4.772 54.658 10.066v-120.987c0-12.694-6.878-16.423-15.399-16.423-4.772 0-10.085 1.101-14.858 2.647l-10.646 3.71v-15.882l82.828-34.874h11.167v348.199c0 20.094 3.188 31.725 17.524 31.725 4.231 0 6.878 0 12.713-2.087l12.752-4.231v15.843l-74.346 27.455c-11.67-7.883-17.485-22.721-20.132-34.893-13.814 14.858-38.796 34.913-74.366 34.913v0z"></path>
<path fill="rgb(255, 255, 255)" d="M3013.32 525.969v-1.063c0-39.608-22.277-58.638-48.843-58.638-29.754 0-52.050 19.533-58.445 59.682l107.288 0.019zM2904.505 547.647v2.666c-0.522 70.27 39.839 105.685 90.247 105.685 25.445 0 48.824-9.506 67.41-23.803v21.176c-21.234 19.572-53.596 35.898-93.397 35.898-82.828 0-119.48-61.807-119.48-120.465 0-68.685 52.533-124.696 120.542-124.696 55.721 0 99.309 39.105 99.309 96.681v6.859h-164.632z"></path>
<path fill="rgb(255, 255, 255)" d="M3100.398 683.935v-12.674l17.505-3.149c10.066-2.106 18.084-10.047 18.084-20.577v-141.119c0-12.133-5.835-18.49-16.5-18.49-3.69 0-7.922 0.522-12.191 2.087l-6.898 2.686v-15.901l75.39-32.749h11.167v51.258c19.070-36.98 41.945-52.301 67.97-52.301 21.234 0 26.527 5.275 26.527 5.275v56.030h-10.607c-2.647-14.819-12.752-22.2-28.672-22.2-17.002 0-38.216 4.772-53.074 35.415v130.009c0 10.549 10.588 18.973 20.693 20.577l25.465 3.149v12.674h-134.859z"></path>
<path fill="rgb(255, 255, 255)" d="M3308.043 396.075v13.525h7.728c7.728 0 11.592-1.932 11.592-5.796 0-5.796-3.864-7.728-11.592-7.728h-7.728zM3333.159 403.804c0 5.796-3.864 9.66-9.66 11.592l9.66 19.321h-7.728l-7.728-19.321h1.932v19.321h-19.321v-38.642h17.389c9.66 0 15.457 1.932 15.457 7.728v0zM3337.025 390.279c-5.796-5.796-13.525-9.66-21.253-9.66s-15.457 3.864-21.253 9.66c-5.796 5.796-9.66 13.525-9.66 21.253s3.864 15.457 9.66 21.253c5.796 5.796 13.525 9.66 21.253 9.66s15.457-3.864 21.253-9.66c5.796-5.796 9.66-13.525 9.66-21.253s-3.864-15.457-9.66-21.253v0zM3340.889 386.415c5.796 5.796 9.66 15.457 9.66 25.117s-3.864 17.389-9.66 25.117c-7.728 5.796-15.457 9.66-25.117 9.66s-17.389-3.864-25.117-9.66c-5.796-5.796-9.66-15.457-9.66-25.117s3.864-17.389 9.66-25.117c5.796-5.796 15.457-9.66 25.117-9.66s17.389 3.864 25.117 9.66v0z"></path>
</svg>
