<?xml version="1.0" encoding="utf-8"?>
<!-- Generator: Adobe Illustrator 19.0.0, SVG Export Plug-In . SVG Version: 6.00 Build 0)  -->
<svg version="1.1" id="Layer_1" xmlns="http://www.w3.org/2000/svg" xmlns:xlink="http://www.w3.org/1999/xlink" x="0px" y="0px"
	 viewBox="0 0 176 54" style="enable-background:new 0 0 176 54;" xml:space="preserve">
<style type="text/css">
	.st0{fill:#FF0000;}
	.st1{fill:#FFFFFF;}
</style>
<g>
	<g>
		<polygon id="XMLID_19_" class="st0" points="2.1,2 173.9,2 173.9,52 2.1,52 2.1,2 		"/>
		<path id="XMLID_18_" class="st1" d="M29,10.8c0,3.3,5.6,6.9,5.6,10.7c0,0,0,0.4-0.1,0.7c5.2,1.1,8.9,3.6,8.9,6.6
			c0,4-6.6,7.3-14.7,7.4c-0.1,0-0.1,0-0.1,0c-8.1,0-14.6-3.2-14.6-7.2c0-3,4-5.4,8.8-6.7c0,1.7,5.5,6.9,5.6,9c0,0,0,0.2,0,0.4
			c0,0.1,0,0.2,0,0.3c1.2-0.6,1.2-2.6,1.2-2.6c0-4.6-5.2-6.6-5.2-11.1c0-1.8,0.7-3,1.7-3.4v1.3c0,3.3,5,6.9,5,9.9v1
			c2-0.5,1.6-3,1.6-3c0-4.1-5.3-6.4-5.3-11.1c0-1.8,0.7-3,1.7-3.4V10.8L29,10.8z"/>
		<path id="XMLID_17_" class="st1" d="M55,34.9c-2.8,0-5-0.8-5-0.8V30h1c0.4,2,2.3,4.2,4.6,4.2c2.2,0,3.8-1.4,3.8-3.4
			c0-2.1-2.1-3.1-3.5-3.8l-2-1.1c-1.9-1-3.5-2.5-3.5-4.7c0-2.7,2-5,5.8-5c2.6,0,4.7,0.9,4.7,0.9v5h-0.6c-0.4-2-1.7-4.5-4.3-4.5
			c-2,0-3.1,1.2-3.1,2.6c0,1.8,1.2,2.5,2.7,3.2l2,1c1.8,0.9,4,2.5,4,5.1C61.7,32.7,59.3,34.9,55,34.9L55,34.9z"/>
		<path class="st1" d="M67.1,34.8c-1.8,0-2.9-1.2-2.9-2.9c0-1.2,1.1-2.2,3.1-2.9l3.7-1.3v-1.1c0-1.6-0.9-2.6-2.1-2.6
			c-0.8,0-1.6,0.4-2,1c-0.2,0.2-0.2,0.6-0.2,0.8c0,0.4,0.3,1,0.3,1l-1.7,0.8c-0.2-0.4-0.5-0.9-0.5-1.4c0-0.1,0-0.2,0-0.3
			c0.1-0.9,0.9-1.5,2-2.2c1.1-0.6,1.9-0.8,2.5-0.8c3.3,0,3.7,2.6,3.7,3.4v5.3c0,0.8,0.2,1.4,0.9,1.4c0.2,0,0.3,0,0.6-0.1l0.6-0.2
			v0.8l-3.5,1.3c-0.5-0.4-0.7-1.1-0.9-1.7C69.8,33.9,68.4,34.8,67.1,34.8L67.1,34.8z M68.4,29.6c-0.5,0.2-1.6,0.7-1.6,1.9
			c0,0.7,0.5,1.8,1.9,1.8c0.6,0,1.3-0.4,2.3-0.9v-3.8L68.4,29.6L68.4,29.6z"/>
		<path id="XMLID_14_" class="st1" d="M76,35v-1.1l1-0.2c0.5-0.1,1-0.5,1-1v-6.9c0-0.6-0.4-0.9-0.9-0.9c-0.2,0-0.5,0-0.7,0.1
			L76,25.2v-0.8l3.7-1.4H80v1.8c1-1.3,2.7-1.9,3.9-1.9c2.6,0,4.1,1.9,4.1,4.1v5.9c0,0.5,0.5,0.9,1,1l1,0.2V35h-7v-1.1l1-0.2
			c0.5-0.1,1-0.5,1-1v-5.8c0-0.8-0.2-2.5-2.3-2.5c-1.1,0-1.7,0.7-2.7,1.2v7.1c0,0.5,0.5,0.9,1,1l1,0.2V35H76L76,35z"/>
		<path id="XMLID_13_" class="st1" d="M98.5,25H95v5.8c0,1.4,0.7,2.2,1.8,2.2c0.4,0,1.1-0.1,1.8-0.5l0.3,0.6l-2.3,1.5
			c0,0-0.6,0.1-0.9,0.1c-2.2,0-3.6-1.3-3.6-4.1V25h-2v-1.2c0,0,3.3-0.8,4.4-2.8H95v3h4L98.5,25L98.5,25z"/>
		<path class="st1" d="M102.9,34.8c-1.8,0-2.9-1.2-2.9-2.9c0-1.2,0.7-2.2,2.7-2.9l3.3-1.3v-1.1c0-1.6-0.6-2.6-1.7-2.6
			c-0.8,0-1.5,0.4-1.9,1c-0.2,0.2-0.1,0.6-0.1,0.8c0,0.4,0.3,1,0.3,1l-1.7,0.8c-0.2-0.4-0.5-0.9-0.5-1.4c0-0.1,0-0.2,0-0.3
			c0.1-0.9,0.9-1.5,2-2.2c1.1-0.6,2-0.8,2.6-0.8c3.3,0,3.9,2.6,3.9,3.4v5.3c0,0.8,0,1.4,0.7,1.4c0.2,0,0.3,0,0.6-0.1l0.6-0.2v0.8
			l-3.6,1.3c-0.5-0.4-0.8-1.1-0.9-1.7C105.6,33.9,104.1,34.8,102.9,34.8L102.9,34.8z M103.7,29.6c-0.5,0.2-1.4,0.7-1.4,1.9
			c0,0.7,0.3,1.8,1.6,1.8c0.6,0,2.1-0.4,2.1-0.9v-3.8L103.7,29.6L103.7,29.6z"/>
		<path id="XMLID_10_" class="st1" d="M112,35v-1.1l0.5-0.2c0.5-0.1,0.5-0.5,0.5-1v-6.9c0-0.6,0-0.9-0.6-0.9c-0.2,0-0.1,0-0.3,0.1
			l-0.1,0.1v-0.8l3.5-1.4h0.5v1.8c1-1.3,2.2-1.9,3.4-1.9c2.6,0,3.6,1.9,3.6,4.1v5.9c0,0.5,0.5,0.9,1,1l1,0.2V35h-6v-1.1l1-0.2
			c0.5-0.1,1-0.5,1-1v-5.8c0-0.8-0.2-2.5-2.3-2.5c-1.1,0-1.7,0.7-2.7,1.2v7.1c0,0.5,0.5,0.9,1,1l1,0.2V35H112L112,35z"/>
		<path class="st1" d="M131.9,34.8c-2.4,0-5.3-1.8-5.3-5.7c0-3.4,2.4-6.2,6-6.2c1.2,0,2.4,0.2,2.4,0.5v-5.9c0-0.6-0.1-0.8-0.5-0.8
			c-0.2,0-0.6,0.1-0.8,0.1l-0.6,0.2v-0.8l4.5-1.2h0.5v16.5c0,1,0.2,1.5,0.9,1.5c0.2,0,0.3,0,0.6-0.1l0.6-0.2v0.8l-3.6,1.3
			c-0.6-0.4-0.8-1.1-1-1.7C134.8,33.8,133.6,34.8,131.9,34.8L131.9,34.8z M132.8,23.9c-1.9,0-3.7,1.2-3.7,4.6c0,2.9,1.3,4.6,3.6,4.6
			c1.4,0,2.3-0.8,2.3-1.2v-6.7C135,24.4,133.9,23.9,132.8,23.9L132.8,23.9z"/>
		<path class="st1" d="M144,28L144,28c0,3.5,1.6,5.2,4.1,5.2c1.2,0,2.9-0.5,2.9-1.2v1c-1,1-2.3,1.8-4.3,1.8c-4,0-5.7-3-5.7-5.9
			c0-3.4,2.7-6.1,6-6.1c2.7,0,5,1.9,5,4.7V28H144L144,28z M149,27v-0.2c0-1.9-1-2.8-2.3-2.8c-1.4,0-2.5,1-2.8,3H149L149,27z"/>
		<path id="XMLID_5_" class="st1" d="M153,35v-1.1l1-0.2c0.5-0.1,1-0.5,1-1v-6.9c0-0.6-0.2-0.9-0.7-0.9c-0.2,0-0.5,0-0.8,0.1
			l-0.5,0.1v-0.8l4-1.4h0v2.3c1-1.8,2.2-2.6,3.5-2.6c1,0,1.5,0.3,1.5,0.3V26h-0.3c-0.1,0-0.5-1.2-1.2-1.2c-0.8,0-2.4,0.1-2.4,1.6
			v6.3c0,0.5,0.4,0.9,0.9,1l1.1,0.2V35H153L153,35z"/>
	</g>
	<path class="st1" d="M163.6,20.5v0.7h0.4c0.4,0,0.6-0.1,0.6-0.3c0-0.3-0.2-0.4-0.6-0.4H163.6L163.6,20.5z M164.9,20.9
		c0,0.3-0.2,0.5-0.5,0.6l0.5,1h-0.4l-0.4-1h0.1v1h-1v-2h0.9C164.6,20.5,164.9,20.6,164.9,20.9L164.9,20.9z M165.1,20.2
		c-0.3-0.3-0.7-0.5-1.1-0.5c-0.4,0-0.8,0.2-1.1,0.5c-0.3,0.3-0.5,0.7-0.5,1.1c0,0.4,0.2,0.8,0.5,1.1c0.3,0.3,0.7,0.5,1.1,0.5
		c0.4,0,0.8-0.2,1.1-0.5c0.3-0.3,0.5-0.7,0.5-1.1C165.6,20.9,165.4,20.5,165.1,20.2L165.1,20.2z M165.3,20c0.3,0.3,0.5,0.8,0.5,1.3
		c0,0.5-0.2,0.9-0.5,1.3c-0.4,0.3-0.8,0.5-1.3,0.5c-0.5,0-0.9-0.2-1.3-0.5c-0.3-0.3-0.5-0.8-0.5-1.3c0-0.5,0.2-0.9,0.5-1.3
		c0.3-0.3,0.8-0.5,1.3-0.5C164.5,19.5,164.9,19.7,165.3,20L165.3,20z"/>
</g>
</svg>
