<?xml version="1.0" encoding="utf-8"?>
<!-- Generator: Adobe Illustrator 19.0.0, SVG Export Plug-In . SVG Version: 6.00 Build 0)  -->
<svg version="1.1" id="Capa_1" xmlns="http://www.w3.org/2000/svg" xmlns:xlink="http://www.w3.org/1999/xlink" x="0px" y="0px"
	 viewBox="0 0 222 50" style="enable-background:new 0 0 222 50;" xml:space="preserve">
<style type="text/css">
	.st0{fill:#FF0000;}
	.st1{fill:#FFFFFF;}
	.st2{fill:#FFFFFE;}
</style>
<rect class="st0" width="222" height="50"/>
<g>
	<path class="st1" d="M128.7,21.3v0.5h0.3c0.3,0,0.4-0.1,0.4-0.2c0-0.2-0.1-0.3-0.4-0.3H128.7L128.7,21.3z M129.6,21.6
		c0,0.2-0.1,0.4-0.3,0.4l0.3,0.7h-0.3L129,22h-0.3v0.6h-0.2v-1.5h0.5C129.4,21.2,129.6,21.3,129.6,21.6L129.6,21.6z M129.7,21.1
		c-0.2-0.2-0.5-0.3-0.8-0.3c-0.3,0-0.6,0.1-0.8,0.3c-0.2,0.2-0.3,0.5-0.3,0.8c0,0.3,0.1,0.6,0.3,0.8c0.2,0.2,0.5,0.3,0.8,0.3
		c0.3,0,0.6-0.1,0.8-0.3c0.2-0.2,0.3-0.5,0.3-0.8C130.1,21.6,130,21.3,129.7,21.1L129.7,21.1z M129.8,21c0.2,0.2,0.4,0.6,0.4,0.9
		c0,0.4-0.1,0.7-0.4,0.9c-0.3,0.2-0.6,0.4-0.9,0.4c-0.3,0-0.7-0.1-0.9-0.4c-0.2-0.2-0.4-0.6-0.4-0.9c0-0.3,0.1-0.7,0.4-0.9
		c0.2-0.2,0.6-0.4,0.9-0.4C129.3,20.6,129.6,20.8,129.8,21L129.8,21z"/>
	<g>
		<path class="st1" d="M21.1,13.1c0,2.6,4.5,5.5,4.5,8.5c0,0,0,0.3-0.1,0.6c4.2,0.9,7.1,2.9,7.1,5.3c0,3.2-5.3,5.9-11.8,5.9
			c0,0-0.1,0-0.1,0C14.2,33.4,9,30.9,9,27.7c0-2.4,3.2-4.3,7.1-5.4c0,1.3,4.4,5.5,4.5,7.2c0,0,0,0.1,0,0.3c0,0.1,0,0.2,0,0.2
			c0.9-0.5,0.9-2,0.9-2c0-3.7-4.3-5.3-4.3-8.9c0-1.4,0.7-2.4,1.3-2.7v1c0,2.6,4.6,5.5,4.6,7.9v0.8c1.1-0.4,1.1-2.4,1.1-2.4
			c0-3.3-4.3-5.1-4.3-8.9c0-1.4,0.7-2.4,1.3-2.7V13.1L21.1,13.1z"/>
		<path class="st1" d="M42,32.4c-2.2,0-3.9-0.6-3.9-0.6v-3.9h0.6c0.3,2.1,1.9,3.6,3.7,3.6c1.8,0,3.1-1,3.1-2.6c0-1.7-1.7-2.4-2.8-3
			L41,25.2c-1.5-0.8-2.8-2-2.8-3.7c0-2.2,1.6-4,4.7-4c2.1,0,3.8,0.7,3.8,0.7v3.5h-0.6c-0.3-1.9-1.4-3.3-3.5-3.3
			c-1.6,0-2.5,1.1-2.5,2.2c0,1.4,1,2.1,2.1,2.6l1.6,0.8c1.5,0.7,3.3,2,3.3,4.1C47.2,30.7,45.4,32.4,42,32.4L42,32.4z"/>
		<path class="st1" d="M51.5,32.3c-1.4,0-2.3-0.9-2.3-2.3c0-1,0.7-1.8,2.3-2.3l2.8-1v-0.9c0-1.3-0.6-2.1-1.5-2.1
			c-0.6,0-1.2,0.3-1.5,0.8c-0.1,0.2-0.1,0.5-0.1,0.7c0,0.4,0.2,0.8,0.2,0.8L50,26.6c-0.2-0.3-0.4-0.7-0.4-1.2c0-0.1,0-0.2,0-0.2
			c0.1-0.7,0.7-1.2,1.6-1.8c0.8-0.5,1.6-0.7,2.1-0.7c2.6,0,3.1,2.1,3.1,2.7v4.3c0,0.7,0.1,1.1,0.6,1.1c0.2,0,0.3,0,0.5-0.1l0.5-0.2
			v0.6l-2.9,1.1c-0.4-0.3-0.6-0.9-0.7-1.3C53.7,31.6,52.5,32.3,51.5,32.3L51.5,32.3z M52.4,28.2c-0.4,0.2-1.2,0.5-1.2,1.5
			c0,0.5,0.3,1.4,1.4,1.4c0.5,0,1.2-0.3,1.8-0.7v-3.1L52.4,28.2L52.4,28.2z"/>
		<path class="st1" d="M58.6,32.1v-0.5l0.7-0.1c0.4-0.1,0.7-0.4,0.7-0.8v-5.5c0-0.5-0.2-0.7-0.6-0.7c-0.1,0-0.3,0-0.5,0.1l-0.3,0.1
			v-0.6l3-1.3H62v1.5c0.9-1,2-1.5,2.9-1.5c2.1,0,3.1,1.5,3.1,3.3v4.7c0,0.4,0.3,0.7,0.7,0.8l0.7,0.1v0.5h-4.9v-0.5l0.7-0.1
			c0.4-0.1,0.7-0.4,0.7-0.8v-4.7c0-0.6-0.2-2-1.8-2c-0.9,0-1.7,0.6-2.1,1v5.7c0,0.4,0.3,0.7,0.7,0.8l0.7,0.1v0.5H58.6L58.6,32.1z"/>
		<path class="st1" d="M76.6,24h-2.9v5.1c0,1.1,0.6,1.8,1.5,1.8c0.4,0,0.9-0.1,1.4-0.4l0.2,0.5L75,32.2c0,0-0.4,0.1-0.6,0.1
			c-1.8,0-2.8-1.1-2.8-3.3V24h-1.5v-0.5c0,0,2.3-0.9,3.2-3h0.4v2.6H77L76.6,24L76.6,24z"/>
		<path class="st1" d="M80.1,32.3c-1.4,0-2.3-0.9-2.3-2.3c0-1,0.7-1.8,2.3-2.3l2.8-1v-0.9c0-1.3-0.6-2.1-1.5-2.1
			c-0.6,0-1.2,0.3-1.5,0.8c-0.1,0.2-0.1,0.5-0.1,0.7c0,0.4,0.2,0.8,0.2,0.8l-1.4,0.6c-0.2-0.3-0.4-0.7-0.4-1.2c0-0.1,0-0.2,0-0.2
			c0.1-0.7,0.7-1.2,1.6-1.8c0.8-0.5,1.6-0.7,2.1-0.7c2.6,0,3.1,2.1,3.1,2.7v4.3c0,0.7,0.1,1.1,0.6,1.1c0.2,0,0.3,0,0.5-0.1l0.5-0.2
			v0.6l-2.9,1.1C83.2,32,83,31.5,82.9,31C82.3,31.6,81.1,32.3,80.1,32.3L80.1,32.3z M80.9,28.2c-0.4,0.2-1.2,0.5-1.2,1.5
			c0,0.5,0.3,1.4,1.4,1.4c0.5,0,1.2-0.3,1.8-0.7v-3.1L80.9,28.2L80.9,28.2z"/>
		<path class="st1" d="M87.2,32.1v-0.5l0.7-0.1c0.4-0.1,0.7-0.4,0.7-0.8v-5.5c0-0.5-0.2-0.7-0.6-0.7c-0.1,0-0.3,0-0.5,0.1l-0.3,0.1
			v-0.6l3-1.3h0.4v1.5c0.9-1,2-1.5,2.9-1.5c2.1,0,3.1,1.5,3.1,3.3v4.7c0,0.4,0.3,0.7,0.7,0.8l0.7,0.1v0.5h-4.9v-0.5l0.7-0.1
			c0.4-0.1,0.7-0.4,0.7-0.8v-4.7c0-0.6-0.2-2-1.8-2c-0.9,0-1.7,0.6-2.1,1v5.7c0,0.4,0.3,0.7,0.7,0.8l0.7,0.1v0.5H87.2L87.2,32.1z"/>
		<path class="st1" d="M103.3,32.3c-1.9,0-4.3-1.4-4.3-4.6c0-2.7,2.1-5,5-5c0.9,0,1.6,0.2,2.1,0.4v-4.7c0-0.5-0.3-0.6-0.6-0.6
			c-0.2,0-0.4,0-0.6,0.1l-0.4,0.1v-0.6l3.2-1.4h0.4v13.6c0,0.8,0.1,1.2,0.7,1.2c0.2,0,0.3,0,0.5-0.1l0.5-0.2v0.6l-2.9,1.1
			c-0.5-0.3-0.7-0.9-0.8-1.4C105.6,31.6,104.7,32.3,103.3,32.3L103.3,32.3z M104.2,23.6c-1.5,0-3,1-3,3.7c0,2.3,1.2,3.7,3,3.7
			c1.1,0,1.8-0.6,1.9-1v-5.4C105.9,24.1,105.1,23.6,104.2,23.6L104.2,23.6z"/>
		<path class="st1" d="M112.9,26.8v0.1c0,2.7,1.5,4.1,3.5,4.1c1,0,1.9-0.4,2.6-0.9v0.8c-0.8,0.8-2.1,1.4-3.6,1.4
			c-3.2,0-4.6-2.4-4.6-4.7c0-2.7,2-4.9,4.7-4.9c2.2,0,3.9,1.5,3.9,3.8v0.3H112.9L112.9,26.8z M117.1,26L117.1,26
			c0-1.6-0.9-2.3-1.9-2.3c-1.2,0-2,0.8-2.3,2.3H117.1L117.1,26z"/>
		<path class="st1" d="M120.5,32.1v-0.5l0.7-0.1c0.4-0.1,0.7-0.4,0.7-0.8v-5.5c0-0.5-0.2-0.7-0.6-0.7c-0.1,0-0.3,0-0.5,0.1l-0.3,0.1
			v-0.6l2.9-1.3h0.4v2c0.7-1.4,1.6-2,2.6-2c0.8,0,1,0.2,1,0.2v2.2h-0.4c-0.1-0.6-0.5-0.9-1.1-0.9c-0.7,0-1.5,0.2-2.1,1.4v5.1
			c0,0.4,0.4,0.7,0.8,0.8l1,0.1v0.5H120.5L120.5,32.1z"/>
		<g>
			<g>
				<polygon class="st2" points="213,5.4 198.4,5.4 198.4,8.6 209.8,8.6 209.8,20 213,20 				"/>
			</g>
			<g>
				<path class="st2" d="M141.8,16.6h5.1c3.4,0,5.9,1.6,5.9,4.9c0,3.4-2.4,5.1-6.3,5.1h-1.4v5.5h-3.3V16.6z M146.6,24.1
					c2.1,0,3-0.8,3-2.6c0-1.6-0.9-2.4-2.9-2.4h-1.5v5H146.6z"/>
				<path class="st2" d="M153.7,37.4l0.4-2.4c0.2,0,0.4,0.1,1.1,0.1c1.6,0,2.1-0.8,2.6-2l0.4-1.2L154,20.8h3.3l2.6,7.5h0.1l2.3-7.5
					h3.2l-4.7,12.6c-1,2.7-2.2,4.2-5.3,4.2C154.5,37.6,154,37.5,153.7,37.4z"/>
				<path class="st2" d="M168.8,16.6h3.2l3.1,9.6c0.4,1.1,0.7,2.2,0.8,2.7h0c0.1-0.4,0.4-1.6,0.8-2.7l3.2-9.6h3.2l2.1,15.5H182l-1-8
					c-0.1-1.1-0.2-2-0.3-2.3h0c-0.1,0.3-0.3,1.2-0.6,2.2l-2.6,8.1h-3.2l-2.6-8c-0.3-1-0.5-1.9-0.6-2.2h0c0,0.3-0.1,1.3-0.2,2.3l-1,8
					h-3L168.8,16.6z"/>
				<path class="st2" d="M188.2,16.6h9v2.7h-5.7v3.5h5v2.6h-5v4.1h5.9v2.7h-9.1V16.6z"/>
			</g>
		</g>
	</g>
</g>
</svg>
