<?xml version="1.0" encoding="utf-8"?>
<!-- Generator: Adobe Illustrator 19.0.0, SVG Export Plug-In . SVG Version: 6.00 Build 0)  -->
<svg version="1.1" id="Layer_1" xmlns="http://www.w3.org/2000/svg" xmlns:xlink="http://www.w3.org/1999/xlink" x="0px" y="0px"
	 viewBox="-612 315 21 21" style="enable-background:new -612 315 21 21;" xml:space="preserve">
<style type="text/css">
	.st0{fill:#7E7E79;}
	.st1{fill:none;}
</style>
<path id="XMLID_315_" class="st0" d="M-592.3,333.3l-4.6-4.7c0.9-1.3,1.5-2.9,1.5-4.6c0-4.4-3.5-8-7.8-8s-7.8,3.6-7.8,8s3.5,8,7.8,8
	c1.9,0,3.7-0.7,5.1-1.9l4.5,4.6c0.4,0.4,1,0.4,1.4,0C-591.9,334.3-591.9,333.7-592.3,333.3z M-603.2,330c-3.2,0-5.8-2.7-5.8-6
	s2.6-6,5.8-6s5.8,2.7,5.8,6S-600,330-603.2,330z"/>
<rect id="_x3C_Sector_x3E__122_" x="-612" y="315" class="st1" width="21" height="21"/>
</svg>
