<?xml version="1.0" encoding="utf-8"?>
<!-- Generator: Adobe Illustrator 19.0.0, SVG Export Plug-In . SVG Version: 6.00 Build 0)  -->
<svg version="1.1" id="Layer_1" xmlns="http://www.w3.org/2000/svg" xmlns:xlink="http://www.w3.org/1999/xlink" x="0px" y="0px"
	 viewBox="-610 314 27 23" style="enable-background:new -610 314 27 23;" xml:space="preserve">
<style type="text/css">
	.st0{fill:none;}
	.st1{fill:#FF0000;}
	.st2{fill:#888683;}
</style>
<rect id="_x3C_Sector_x3E__114_" x="-610" y="314" class="st0" width="27" height="23"/>
<path class="st1" d="M-584.7,336h-2.8c-0.4,0-0.7-0.3-0.7-0.7v-1.7c0-0.4,0.3-0.7,0.7-0.7h2.8c0.4,0,0.7,0.3,0.7,0.7v1.7
	C-584,335.7-584.3,336-584.7,336z"/>
<path class="st1" d="M-584.7,330.9h-2.8c-0.4,0-0.7-0.3-0.7-0.7v-9.5c0-0.4,0.3-0.7,0.7-0.7h2.8c0.4,0,0.7,0.3,0.7,0.7v9.5
	C-584,330.6-584.3,330.9-584.7,330.9z"/>
<path class="st2" d="M-599.2,315l-9.8,7.3v1.5v1.3v9.4c0,0.8,0.7,1.5,1.5,1.5h17c0.8,0,1.5-0.7,1.5-1.5v-9.4v-1.3v-1.5L-599.2,315z
	 M-607,323l8-5.8l8,5.8v1.1h-16V323z M-591,334h-16v-8.9h1.3l1.8,4h10.6l1.6-4h0.7V334z"/>
</svg>
