<?xml version="1.0" encoding="utf-8"?>
<!-- Generator: Adobe Illustrator 19.0.0, SVG Export Plug-In . SVG Version: 6.00 Build 0)  -->
<svg version="1.1" id="Layer_1" xmlns="http://www.w3.org/2000/svg" xmlns:xlink="http://www.w3.org/1999/xlink" x="0px" y="0px"
	 viewBox="-611 317 27 18" style="enable-background:new -611 317 27 18;" xml:space="preserve">
<style type="text/css">
	.st0{fill:none;}
	.st1{fill:#FF0000;}
	.st2{fill:#424242;}
</style>
<rect id="_x3C_Sector_x3E__116_" x="-611" y="317" class="st0" width="27" height="18"/>
<g>
	<path class="st1" d="M-585.7,333.9h-2.8c-0.4,0-0.7-0.3-0.7-0.7v-1.7c0-0.4,0.3-0.7,0.7-0.7h2.8c0.4,0,0.7,0.3,0.7,0.7v1.7
		C-585,333.6-585.3,333.9-585.7,333.9z"/>
	<path class="st1" d="M-585.7,328.9h-2.8c-0.4,0-0.7-0.3-0.7-0.7v-9.5c0-0.4,0.3-0.7,0.7-0.7h2.8c0.4,0,0.7,0.3,0.7,0.7v9.5
		C-585,328.6-585.3,328.9-585.7,328.9z"/>
</g>
<path class="st2" d="M-591.5,318h-17c-0.8,0-1.5,0.7-1.5,1.5v13c0,0.8,0.7,1.5,1.5,1.5h17c0.8,0,1.5-0.7,1.5-1.5v-13
	C-590,318.7-590.7,318-591.5,318z M-592,332h-16v-9.2l8,6l8-6V332z M-592,320.8l-8,6l-8-6V320h16V320.8L-592,320.8z"/>
</svg>
