<?xml version="1.0" encoding="utf-8"?>
<!-- Generator: Adobe Illustrator 19.0.0, SVG Export Plug-In . SVG Version: 6.00 Build 0)  -->
<svg version="1.1" id="Layer_1" xmlns="http://www.w3.org/2000/svg" xmlns:xlink="http://www.w3.org/1999/xlink" x="0px" y="0px"
	 viewBox="-610 312 27 25" style="enable-background:new -610 312 27 25;" xml:space="preserve">
<style type="text/css">
	.st0{fill:none;}
	.st1{fill:#FF0000;}
</style>
<rect id="icono_alerta_1_" x="-610" y="312" class="st0" width="27" height="25"/>
<g>
	<g>
		<path class="st1" d="M-594.6,322.5c0-0.5-0.4-1-1-1h-1.5c-0.5,0-1,0.4-1,1v5.5c0,0.5,0.4,1,1,1h1.5c0.5,0,1-0.4,1-1V322.5z
			 M-584.3,333l-10.9-19.5c-0.4-0.7-2.1-0.7-2.5,0l-10.9,19.5c-1,1.8,0.5,3,1.5,3h21.4C-584.9,336-583.3,335-584.3,333z M-589.3,333
			h-14.4c-0.8,0-0.9-0.8-0.5-1.5l7.4-14.5c0.1-0.3,0.3-0.3,0.5,0l7.4,14.5C-588.4,332.2-588.5,333-589.3,333z M-595.8,330h-1.5
			c-0.4,0-0.8,0.1-0.8,0.5v1c0,0.4,0.4,0.4,0.8,0.4h1.5c0.4,0,1.2,0,1.2-0.4v-1C-594.6,330.2-595.3,330-595.8,330z"/>
	</g>
</g>
</svg>
