<?xml version="1.0" encoding="utf-8"?>
<!-- Generator: Adobe Illustrator 19.0.0, SVG Export Plug-In . SVG Version: 6.00 Build 0)  -->
<svg version="1.1" id="Layer_1" xmlns="http://www.w3.org/2000/svg" xmlns:xlink="http://www.w3.org/1999/xlink" x="0px" y="0px"
	 viewBox="-610 312 27 27" style="enable-background:new -610 312 27 27;" xml:space="preserve">
<style type="text/css">
	.st0{fill:#FF0000;}
	.st1{fill:none;}
</style>
<g id="reloj-espera_2_">
	<g>
		<g>
			<g id="XMLID_366_">
				<path id="XMLID_367_" class="st0" d="M-595.5,320c0-0.6-0.4-1-1-1h-1c-0.6,0-1,0.4-1,1v6c0,0.6,0.4,1,1,1h1c0.6,0,1-0.4,1-1V320
					z"/>
			</g>
		</g>
		<g>
			<g id="XMLID_364_">
				<path id="XMLID_365_" class="st0" d="M-592.5,325c0-0.6-0.4-1-1-1h-4c-0.6,0-1,0.4-1,1v1c0,0.6,0.4,1,1,1h4c0.6,0,1-0.4,1-1V325
					z"/>
			</g>
		</g>
	</g>
	<path class="st0" d="M-596.5,313c-6.9,0-12.5,5.6-12.5,12.5s5.6,12.5,12.5,12.5s12.5-5.6,12.5-12.5S-589.6,313-596.5,313z
		 M-596.5,335.5c-5.5,0-10-4.5-10-10s4.5-10,10-10s10,4.5,10,10S-591,335.5-596.5,335.5z"/>
</g>
<rect id="_x3C_Sector_x3E__91_" x="-610" y="312" class="st1" width="27" height="27"/>
</svg>
