<?xml version="1.0" encoding="utf-8"?>
<!-- Generator: Adobe Illustrator 19.0.0, SVG Export Plug-In . SVG Version: 6.00 Build 0)  -->
<svg version="1.1" id="Layer_1" xmlns="http://www.w3.org/2000/svg" xmlns:xlink="http://www.w3.org/1999/xlink" x="0px" y="0px"
	 viewBox="-614 314 20 22" style="enable-background:new -614 314 20 22;" xml:space="preserve">
<style type="text/css">
	.st0{fill:#454545;}
	.st1{fill:none;}
</style>
<path id="perfil_1_" class="st0" d="M-595.4,329.4c-0.5-0.9-2.4-1.4-4.2-2.1c-1.8-0.8-2.2-1-2.2-1v-1.8c0,0,0.7-0.5,0.9-2.2
	c0.4,0.1,0.9-0.6,0.9-1c0-0.4-0.1-1.5-0.6-1.4c0.1-0.8,0.2-1.5,0.1-1.9c-0.1-1.4-1.5-2.9-3.6-2.9c-2,0-3.4,1.5-3.5,2.9
	c0,0.4,0,1.1,0.1,1.9c-0.5-0.1-0.6,1-0.6,1.4c0,0.4,0.5,1.2,0.9,1c0.2,1.7,0.9,2.2,0.9,2.2v1.8c0,0-0.4,0.3-2.2,1
	c-1.8,0.8-3.6,1.2-4.2,2.1c-0.5,0.8-0.3,5.6-0.3,5.6h9h9C-595.1,335-594.9,330.3-595.4,329.4z"/>
<rect id="_x3C_Sector_x3E__118_" x="-614" y="314" class="st1" width="20" height="22"/>
</svg>
